<?xml version="1.0" encoding="UTF-8" standalone="no"?>
<svg
   xmlns:dc="http://purl.org/dc/elements/1.1/"
   xmlns:cc="http://creativecommons.org/ns#"
   xmlns:rdf="http://www.w3.org/1999/02/22-rdf-syntax-ns#"
   xmlns:svg="http://www.w3.org/2000/svg"
   xmlns="http://www.w3.org/2000/svg"
   xmlns:xlink="http://www.w3.org/1999/xlink"
   xmlns:sodipodi="http://sodipodi.sourceforge.net/DTD/sodipodi-0.dtd"
   xmlns:inkscape="http://www.inkscape.org/namespaces/inkscape"
   width="559.59375"
   height="440.65625"
   id="svg3060"
   version="1.1"
   inkscape:version="0.48.5 r10040"
   sodipodi:docname="brainstem_logo.svg">
  <metadata
     id="metadata3133">
    <rdf:RDF>
      <cc:Work
         rdf:about="">
        <dc:format>image/svg+xml</dc:format>
        <dc:type
           rdf:resource="http://purl.org/dc/dcmitype/StillImage" />
        <dc:title></dc:title>
      </cc:Work>
    </rdf:RDF>
  </metadata>
  <defs
     id="defs3131" />
  <sodipodi:namedview
     pagecolor="#ffffff"
     bordercolor="#666666"
     borderopacity="1"
     objecttolerance="10"
     gridtolerance="10"
     guidetolerance="10"
     inkscape:pageopacity="0"
     inkscape:pageshadow="2"
     inkscape:window-width="944"
     inkscape:window-height="1001"
     id="namedview3129"
     showgrid="false"
     showguides="true"
     inkscape:guide-bbox="true"
     inkscape:snap-bbox="false"
     inkscape:zoom="1.2782552"
     inkscape:cx="257.69307"
     inkscape:cy="223.9375"
     inkscape:window-x="0"
     inkscape:window-y="0"
     inkscape:window-maximized="0"
     inkscape:current-layer="svg3060"
     inkscape:snap-grids="false"
     inkscape:snap-to-guides="false"
     fit-margin-top="0"
     fit-margin-left="0"
     fit-margin-right="0"
     fit-margin-bottom="0" />
  <path
     style="fill:#5d0d0b"
     inkscape:connector-curvature="0"
     id="svg_1"
     d="m 413.73749,250.01874 c 2.79999,-0.10001 5.79999,-0.4 8.39999,-1.4 0.70001,-0.30001 1.4,-0.6 2.10001,-1 10.1,-4.90001 15.1,-16.19999 19.70001,-26.19999 2.09998,-9.5 3.79999,-19.20002 3.09998,-29 -1.9,-28.70002 -11.59998,-58.20002 -29.29999,-81.20001 -5.10001,-6.6 -10.9,-12.7 -17.4,-17.9 -11.20001,-9 -25.6,-15.900002 -33.89999,-28 -1.20001,-1.800003 -2.40002,-3.700005 -3.5,-5.599998 -7.40002,-12.600002 -14.90002,-23.400002 -27.5,-31.300003 -11,-6.9 -23.20001,-11.799999 -35.30002,-16.099998 -22.69998,-8.1 -47.19998,-10.400001 -70.69998,-4.800001 -7.70001,1.800001 -15.5,6.4 -23.3,7.200001 -10,1 -20,-3.700001 -30.10001,-3.1 -25.60001,1.299999 -53.89999,10.6 -73.10001,28.5 -17.19999,15.999996 -31.69999,51.799999 -20.59999,74.199999 1,2 2.09999,4.7 0.7,6.4 -0.7,0.8 -1.7,1.1 -2.60001,1.5 -57.699992,19.8 -65.099993,133.4 1.10001,146.9 18.60001,3.79999 37.2,-2 55.5,2.9 16.2,4.39999 32,10.69998 48.60001,13.39999 9.69999,1.60001 19.29998,0.4 28.69999,-2.39999 4.69999,-1.4 9.4,-3.20001 13.9,-5.10001 1.5,-0.6 5.39999,-3.1 6.79999,-2.39999 1.80001,0.69998 2.30001,3.69998 3.6,4.89999 1.60001,1.4 3.80002,1.70001 5.80002,2.29999 5.09998,1.60001 10.19998,3.40002 15.29999,5.20001 10.89999,3.70001 21.79999,7.5 32.79999,10.79999 21.30001,6.30002 44.30001,11.30002 66.40002,7.20001 11.59998,-2.20001 23,-8.1 31.19998,-16.70001 4.20001,-4.29999 7.60001,-9.5 9.30002,-15.39999 1.09998,-3.5 0,-10.4 1.5,-14.5 0.59998,-4.79999 3.89999,-9.19999 10.09998,-9.19999 1.10003,0 1.90002,0 2.70001,-0.1 z M 121.1375,49.71875 c -0.1,0 -0.30001,0.1 -0.4,0.1 l 6.5,-2 c -2,0.800001 -4,1.4 -6.1,1.9 z" />
  <path
     style="fill:#f59496"
     inkscape:connector-curvature="0"
     id="svg_2"
     d="M 264.03751,82.71875" />
  <path
     style="fill:#f59496"
     inkscape:connector-curvature="0"
     id="svg_3"
     d="m 431.03751,155.71875 c -11.69999,-28.5 -33.60001,-72.800003 -69.9,-68.199997 -0.30002,-20.900002 -7.40002,-38.100002 -25,-49.700005 -21.90002,-14.599998 -45.70001,-26.199999 -72,-29.899998 l -1.1,0.199999 c -1.70002,-0.199999 -3.5,-0.4 -5.20002,-0.4 -11.69998,-0.5 -23.29998,1.6 -34.19998,5.799999 -3,1.200001 -6.70001,4.900002 -4.30002,8.5 1.5,2.200001 6.80002,2.799999 9.20002,3.900002 9.1,4.399998 17.6,10.200001 25.5,16.5 5.1,4 10.1,8 15.19998,12.099998 2.6,2.100002 5.30002,4.200001 6.90002,7.200001 -22.40002,-13.099998 -43.30002,-27.900002 -68.1,-36.200001 -24.9,-8.4 -53.1,-10.099998 -77,0.900002 -15,6.899998 -27.70002,19.399998 -34.6,34.600002 -3.70001,8.199997 -7.5,18.299995 -6.9,27.5 0.6,9.699998 5.9,24.399998 0.5,33.099988 -5.7,9.10001 -16.1,13.90001 -24.3,20.40001 -20.099997,15.8 -28.999999,44.7 -21.199996,69.3 7.699996,24.5 31.499996,42.9 56.799996,44 6.89999,0.29999 14.2,-0.70001 19.5,-5.20001 5.3,-4.39999 7.6,-13 3.5,-18.59999 12.7,19.99999 34.5,33.90001 57.89999,36.7 24.50002,3 44.30001,-7.60001 64.2,-20.29999 -11.10001,7.09998 33.40002,32.29999 37,33.5 21.10001,7 47.10001,12.59998 69.40002,9.79999 19.09998,-2.4 33.79999,-18.70001 47.29999,-31.10001 13.60001,-12.5 30.9,-22.89999 37.5,-41.19999 7.29999,-20.4 1.59998,-43.2 -6.6,-63.2 z m -154.4,-93.900002 0.5,-0.699997 c 0.20001,0.400002 0.29999,0.799995 0.5,1.199997 -0.40002,-0.1 -0.70001,-0.299995 -1,-0.5 z" />
  <g
     id="svg_4"
     transform="matrix(1.0330206,0,0,1.0330206,-49.65974,-10.967664)">
    <path
       style="fill:#5d0d0b"
       inkscape:connector-curvature="0"
       id="svg_5"
       d="M 61.200001,345.70001 C 62.5,345.70001 63.799999,346 65,346.5 c 1.199997,0.5 2.199997,1.20001 3.099998,2.10001 0.900002,0.89999 1.599998,2 2.099998,3.20001 0.5,1.19998 0.800003,2.5 0.800003,3.79999 0,2.39999 -0.699997,4.5 -2.199997,6.39999 1,0.60001 1.799995,1.20001 2.5,2 0.699997,0.80002 1.299995,1.60001 1.799995,2.5 0.5,0.90002 0.900002,1.80002 1.099998,2.80002 0.300003,1 0.400002,2 0.400002,3 0,1.6 -0.299995,3.1 -0.900002,4.6 -0.599998,1.4 -1.399994,2.69999 -2.5,3.79999 -1,1.10001 -2.299995,1.9 -3.699997,2.5 -1.400002,0.60001 -2.900002,0.9 -4.5,0.9 l -9.099998,0 c -0.300003,0 -0.700001,-0.10001 -1,-0.19999 -0.300003,-0.1 -0.600002,-0.30001 -0.800003,-0.5 -0.199997,-0.20001 -0.399998,-0.5 -0.5,-0.80001 -0.1,-0.29999 -0.199997,-0.60001 -0.199997,-1 l 0,-33.29999 c 0,-0.4 0.1,-0.70001 0.199997,-1 0.100002,-0.30002 0.300003,-0.60001 0.5,-0.80002 0.200001,-0.19998 0.5,-0.39999 0.800003,-0.5 0.299999,-0.1 0.599998,-0.19998 1,-0.19998 l 7.299999,0 0,-0.10001 z m -4.799999,5.09998 0,9.70001 4.799999,0 c 0.700001,0 1.299999,-0.10001 1.899998,-0.40002 0.600002,-0.29999 1.099998,-0.59998 1.5,-1.09998 0.400002,-0.40002 0.800003,-1 1,-1.5 0.300003,-0.60001 0.400002,-1.20001 0.400002,-1.90002 0,-0.69999 -0.1,-1.29999 -0.400002,-1.9 -0.299995,-0.6 -0.599998,-1.1 -1,-1.5 -0.400002,-0.39999 -0.899998,-0.79999 -1.5,-1.1 -0.599998,-0.29999 -1.199997,-0.4 -1.799999,-0.4 l -4.899998,0 0,0.10001 z m 0,14.80002 0,13.39999 L 63,379 c 0.900002,0 1.800003,-0.20001 2.599998,-0.5 0.800003,-0.39999 1.5,-0.79999 2.099998,-1.39999 0.600006,-0.60001 1.100006,-1.30002 1.400002,-2.10001 0.300003,-0.79999 0.5,-1.70001 0.5,-2.60001 0,-0.89999 -0.199997,-1.79998 -0.5,-2.6 -0.299995,-0.79999 -0.799995,-1.5 -1.400002,-2.09998 -0.600007,-0.59997 -1.299995,-1.1 -2.099998,-1.40002 -0.799995,-0.4 -1.699997,-0.5 -2.599998,-0.5 l -6.599998,0 0,-0.19998 z" />
    <path
       style="fill:#5d0d0b"
       inkscape:connector-curvature="0"
       id="svg_6"
       d="m 82.800003,359.70001 0,0.5 c 1.199997,-1 2.5,-1.70001 3.899994,-2.20001 1.400002,-0.5 2.900002,-0.79999 4.400002,-0.79999 0.700005,0 1.400002,0 2.200005,0.10001 0.799995,0.1 1.5,0.29999 2.199997,0.5 0.699997,0.19998 1.199997,0.6 1.699997,1 0.5,0.39999 0.700005,1 0.700005,1.69998 0,0.40002 -0.1,0.70001 -0.200005,1 -0.100007,0.29999 -0.299995,0.60001 -0.5,0.80002 -0.199997,0.19998 -0.5,0.39999 -0.799995,0.5 -0.300003,0.1 -0.599998,0.19998 -1,0.19998 -0.300003,0 -0.599998,-0.1 -1,-0.29999 -1,-0.39999 -2.099998,-0.6 -3.200005,-0.6 -1.199997,0 -2.199997,0.20001 -3.199997,0.70001 -1,0.39999 -1.900002,1 -2.599998,1.79999 -0.700005,0.80001 -1.300003,1.70001 -1.800003,2.70001 -0.400002,1 -0.699997,2.1 -0.699997,3.29999 l 0,10.89999 c 0,0.70001 -0.200005,1.30002 -0.700005,1.80002 -0.5,0.5 -1.099998,0.69998 -1.699997,0.69998 -0.699997,0 -1.300003,-0.19998 -1.800003,-0.69998 -0.5,-0.5 -0.699997,-1.10001 -0.699997,-1.80002 l 0,-21.89999 c 0,-0.69999 0.199997,-1.29999 0.699997,-1.79999 0.5,-0.5 1.100006,-0.70001 1.800003,-0.70001 0.699997,0 1.300003,0.20001 1.699997,0.70001 0.400002,0.59997 0.600006,1.19998 0.600006,1.89999 z" />
    <path
       style="fill:#5d0d0b"
       inkscape:connector-curvature="0"
       id="svg_7"
       d="m 122.2,381.60001 0,-0.5 c -1.2,1 -2.5,1.70001 -3.9,2.20001 -1.4,0.5 -2.9,0.79999 -4.4,0.79999 -3.7,0 -6.8,-1.29999 -9.4,-3.9 -2.6,-2.6 -3.9,-5.79999 -3.9,-9.5 0,-3.70001 1.3,-6.89999 3.9,-9.5 2.6,-2.6 5.7,-3.89999 9.4,-3.89999 3.6,0 6.7,1.29999 9.4,3.89999 2.6,2.60001 3.9,5.79999 3.9,9.5 l 0,10.9 c 0,0.70001 -0.2,1.30001 -0.7,1.80001 -0.5,0.5 -1.1,0.69999 -1.7,0.69999 -0.7,0 -1.3,-0.19999 -1.8,-0.69999 -0.6,-0.50003 -0.8,-1.10003 -0.8,-1.80001 z m -8.3,-19.4 c -1.2,0 -2.3,0.20001 -3.3,0.70001 -1,0.4 -1.9,1.09998 -2.6,1.79999 -0.69999,0.70001 -1.3,1.70001 -1.8,2.70001 -0.4,1 -0.7,2.09998 -0.7,3.29999 0,1.20001 0.2,2.20001 0.7,3.29999 0.4,1 1,1.90002 1.8,2.70001 0.8,0.79999 1.6,1.4 2.6,1.79999 1,0.40002 2.1,0.70001 3.3,0.70001 1.1,0 2.2,-0.20001 3.2,-0.70001 1,-0.39999 1.9,-1.09998 2.6,-1.79999 C 120.4,375.90002 121,375 121.5,374 c 0.4,-1 0.6,-2.09998 0.6,-3.19998 0,-1.20001 -0.2,-2.20001 -0.6,-3.30002 -0.4,-1 -1,-1.89999 -1.8,-2.69998 -0.7,-0.80002 -1.6,-1.4 -2.6,-1.80002 -1,-0.60001 -2.1,-0.79999 -3.2,-0.79999 z" />
    <path
       style="fill:#5d0d0b"
       inkscape:connector-curvature="0"
       id="svg_8"
       d="m 137.60001,352.39999 c 0,0.79999 -0.30001,1.5 -0.9,2.10001 -0.6,0.59998 -1.3,0.89999 -2.1,0.89999 -0.80001,0 -1.5,-0.30001 -2.09999,-0.89999 -0.60001,-0.60001 -0.90001,-1.30002 -0.90001,-2.10001 0,-0.79998 0.3,-1.5 0.90001,-2.1 0.59999,-0.60001 1.29998,-0.9 2.09999,-0.9 0.8,0 1.5,0.29999 2.1,0.9 0.59999,0.6 0.9,1.30002 0.9,2.1 z m -5.40001,29.20002 0,-21.79999 c 0,-0.70001 0.19999,-1.30002 0.69999,-1.80002 0.5,-0.5 1.10001,-0.69998 1.70002,-0.69998 0.6,0 1.29998,0.19998 1.69999,0.69998 0.5,0.5 0.7,1.10001 0.7,1.80002 l 0,21.79999 c 0,0.70001 -0.3,1.30001 -0.7,1.80001 -0.5,0.5 -1.1,0.69999 -1.69999,0.69999 -0.6,0 -1.30001,-0.19999 -1.70002,-0.69999 -0.5,-0.50003 -0.69999,-1.10003 -0.69999,-1.80001 z" />
    <path
       style="fill:#5d0d0b"
       inkscape:connector-curvature="0"
       id="svg_9"
       d="m 147.10001,359.70001 c 2.1,-1.6 4.6,-2.5 7.40001,-2.5 1.69999,0 3.19999,0.29999 4.69999,1 1.5,0.70001 2.80001,1.5 3.9,2.70001 1.1,1.09998 2,2.5 2.69999,4 0.70001,1.5 1,3.19999 1,4.9 l 0,11.79999 c 0,0.70001 -0.19999,1.30001 -0.69999,1.80001 -0.5,0.5 -1.09999,0.69999 -1.7,0.69999 -0.7,0 -1.3,-0.19999 -1.8,-0.69999 -0.5,-0.5 -0.7,-1.1 -0.7,-1.80001 l 0,-11.79999 c 0,-1 -0.2,-2 -0.60001,-2.9 -0.39999,-0.90002 -0.89999,-1.70001 -1.59999,-2.40002 -0.69999,-0.69998 -1.5,-1.19998 -2.40001,-1.59998 -0.89999,-0.40002 -1.89999,-0.6 -2.89999,-0.6 -1,0 -2,0.19998 -2.89999,0.6 -0.90001,0.4 -1.70002,0.9 -2.40001,1.59998 -0.7,0.70001 -1.2,1.5 -1.59999,2.40002 -0.40001,0.9 -0.60001,1.9 -0.60001,2.9 l 0,11.79999 c 0,0.70001 -0.2,1.30001 -0.7,1.80001 -0.5,0.5 -1.1,0.69999 -1.69999,0.69999 -0.70002,0 -1.30001,-0.19999 -1.80001,-0.69999 -0.5,-0.5 -0.69999,-1.1 -0.69999,-1.80001 l 0,-21.79999 c 0,-0.70001 0.19999,-1.30002 0.69999,-1.80002 0.5,-0.5 1.09999,-0.69998 1.80001,-0.69998 0.69999,0 1.29998,0.19998 1.69999,0.69998 0.69998,0.5 0.9,1 0.9,1.70001 z" />
    <path
       style="fill:#5d0d0b"
       inkscape:connector-curvature="0"
       id="svg_10"
       d="m 175.39999,371.29999 c -1.5,-0.60001 -2.5,-1.20001 -3.1,-1.79999 l 0,0 c -1.2,-1.20001 -1.80001,-2.70001 -1.80001,-4.30002 0,-1.19998 0.30001,-2.29999 1,-3.29999 0.7,-1 1.5,-1.80001 2.5,-2.5 1,-0.70001 2.20002,-1.20001 3.5,-1.6 1.30001,-0.4 2.60001,-0.60001 3.90001,-0.60001 3.9,0 7.30001,1.60001 10.09999,4.80002 0.30001,0.39999 0.5,0.89999 0.5,1.5 0,0.69998 -0.19999,1.29999 -0.69999,1.79999 -0.5,0.5 -1.09999,0.70001 -1.80001,0.70001 -0.5,0 -0.89999,-0.10001 -1.29998,-0.40002 -0.40001,-0.29999 -0.70002,-0.59998 -1,-0.9 -1.60001,-1.6 -3.60001,-2.39999 -5.90001,-2.39999 -2.30001,0 -4.09999,0.70001 -5.4,2.1 -0.3,0.29999 -0.40001,0.60001 -0.40001,1.10001 0,0.39999 0.20002,0.79999 0.60001,0.89999 L 187.2,370.09998 c 1.5,0.6 2.59999,1.20001 3.09999,1.80001 l 0,0 c 1.19999,1.19999 1.8,2.69999 1.8,4.29999 0,1.20001 -0.3,2.30002 -1,3.30002 -0.7,1 -1.5,1.79999 -2.5,2.5 -1,0.69998 -2.2,1.19998 -3.39999,1.59998 -1.30001,0.40002 -2.60001,0.6 -3.90001,0.6 -4,0 -7.30001,-1.6 -10.09999,-4.79999 -0.30001,-0.5 -0.5,-1 -0.5,-1.6 0,-0.70001 0.19999,-1.29999 0.69999,-1.79999 0.5,-0.5 1.09999,-0.70001 1.80001,-0.70001 0.5,0 1,0.20001 1.29998,0.5 0.40001,0.29999 0.70002,0.6 1,0.89999 1.60001,1.60001 3.60001,2.4 5.90001,2.4 2.30001,0 4.09999,-0.69999 5.4,-2.19999 0.19999,-0.30001 0.40001,-0.6 0.40001,-1 0,-0.39999 -0.20002,-0.80001 -0.60001,-0.89999 l -11.2,-3.70001 z" />
    <path
       style="fill:#5d0d0b"
       inkscape:connector-curvature="0"
       id="svg_11"
       d="m 197.89999,357.20001 1.09999,0 0,-9 c 0,-0.70001 0.20002,-1.29999 0.70002,-1.79999 0.5,-0.5 1.09999,-0.70001 1.79998,-0.70001 0.70002,0 1.30001,0.20001 1.70002,0.70001 0.5,0.5 0.69999,1.09998 0.69999,1.79999 l 0,9 3,0 c 0.7,0 1.30001,0.20001 1.7,0.70001 0.5,0.5 0.7,1.09998 0.7,1.79999 0,0.70001 -0.2,1.29999 -0.7,1.79999 -0.5,0.5 -1,0.70001 -1.7,0.70001 l -3,0 0,12.10001 c 0,3.19998 1.59999,4.79999 4.7,4.79999 0.7,0 1.3,0.20001 1.7,0.70001 0.5,0.5 0.69999,1.1 0.69999,1.79999 0,0.70001 -0.19999,1.30001 -0.69999,1.80001 -0.5,0.5 -1,0.69999 -1.7,0.69999 -6.39999,0 -9.7,-3.29999 -9.7,-9.79999 l 0,-12.10001 -1.1,0 c -0.7,0 -1.2,-0.20001 -1.7,-0.70001 -0.5,-0.5 -0.7,-1.09998 -0.7,-1.79999 0,-0.70001 0.2,-1.29999 0.7,-1.79999 0.60001,-0.40002 1.20001,-0.70001 1.8,-0.70001 z" />
    <path
       style="fill:#5d0d0b"
       inkscape:connector-curvature="0"
       id="svg_12"
       d="m 233.3,376.5 c 0.7,0 1.30001,0.20001 1.80001,0.70001 0.5,0.5 0.69999,1.09998 0.69999,1.79999 0,0.70001 -0.19999,1.29999 -0.69999,1.79999 C 232.7,383 229.8,384.10001 226.5,384.10001 c -3.7,0 -6.8,-1.30002 -9.39999,-3.9 -2.60001,-2.6 -3.90001,-5.80002 -3.90001,-9.5 0,-3.69998 1.3,-6.90002 3.90001,-9.5 2.59999,-2.6 5.69999,-3.90002 9.39999,-3.90002 3.60001,0 6.7,1.30002 9.39999,3.90002 C 237.2,362.5 238.2,363.89999 238.8,365.5 c 0.59999,1.60001 1,3.29999 1,5.20001 0,0.69998 -0.19999,1.29999 -0.69999,1.79999 -0.5,0.5 -1.10001,0.70001 -1.80001,0.70001 l -18.69999,0 c 0.29998,0.9 0.69999,1.69998 1.19999,2.4 0.5,0.69998 1.09999,1.39999 1.80001,1.89999 0.69999,0.5 1.5,0.89999 2.29998,1.20001 0.80001,0.29999 1.70002,0.4 2.60001,0.4 1,0 2,-0.20002 2.89999,-0.5 0.9,-0.29999 1.70002,-0.80002 2.40001,-1.4 0.30001,-0.5 0.9,-0.70001 1.5,-0.70001 z m 1,-8.39999 c -0.3,-0.9 -0.69999,-1.69999 -1.19999,-2.4 C 232.60001,365 232,364.30002 231.3,363.80002 c -0.69999,-0.5 -1.5,-0.9 -2.3,-1.20001 -0.8,-0.29999 -1.7,-0.4 -2.60001,-0.4 -0.89999,0 -1.79998,0.10001 -2.59999,0.4 -0.90001,0.30001 -1.6,0.70001 -2.3,1.20001 -0.7,0.5 -1.3,1.1 -1.8,1.89999 -0.5,0.70001 -0.9,1.5 -1.2,2.4 l 15.8,0 z" />
    <path
       style="fill:#5d0d0b"
       inkscape:connector-curvature="0"
       id="svg_13"
       d="m 280.70001,381.60001 c 0,0.70001 -0.20001,1.30001 -0.70001,1.80001 -0.5,0.5 -1.09998,0.69999 -1.69998,0.69999 -0.70001,0 -1.30002,-0.19999 -1.70001,-0.69999 -0.5,-0.5 -0.69999,-1.1 -0.69999,-1.80001 l 0,-13.60001 c 0,-0.79999 -0.1,-1.5 -0.40002,-2.19998 -0.29999,-0.70001 -0.69998,-1.30002 -1.19998,-1.80002 -0.5,-0.5 -1.10001,-0.89999 -1.80002,-1.19998 -0.69998,-0.30002 -1.39999,-0.5 -2.19998,-0.5 -0.80002,0 -1.5,0.19998 -2.20001,0.5 -0.69999,0.29999 -1.29999,0.69998 -1.79999,1.19998 -0.5,0.5 -0.9,1.10001 -1.20001,1.80002 -0.29999,0.69998 -0.4,1.39999 -0.4,2.19998 l 0,13.60001 c 0,0.70001 -0.20001,1.30001 -0.70001,1.80001 -0.5,0.5 -1.09998,0.69999 -1.69998,0.69999 -0.70001,0 -1.30002,-0.19999 -1.80002,-0.69999 -0.5,-0.5 -0.69998,-1.1 -0.69998,-1.80001 l 0,-13.60001 c 0,-0.79999 -0.20001,-1.5 -0.4,-2.19998 -0.30001,-0.70001 -0.70001,-1.30002 -1.20001,-1.80002 -0.5,-0.5 -1.1,-0.89999 -1.79999,-1.19998 -0.70001,-0.30002 -1.4,-0.5 -2.20001,-0.5 -0.8,0 -1.5,0.1 -2.19999,0.39999 -0.70002,0.29999 -1.30001,0.70001 -1.80001,1.20001 -0.5,0.5 -0.90001,1.09998 -1.19999,1.79999 -0.30001,0.70001 -0.40001,1.4 -0.40001,2.20001 l 0,13.59998 c 0,0.70001 -0.2,1.30002 -0.7,1.80002 -0.5,0.5 -1.10001,0.69998 -1.7,0.69998 -0.69999,0 -1.3,-0.19998 -1.8,-0.69998 -0.5,-0.5 -0.7,-1.10001 -0.7,-1.80002 l 0,-21.79999 c 0,-0.70001 0.2,-1.29999 0.7,-1.79999 0.5,-0.5 1.10001,-0.70001 1.7,-0.70001 0.6,0 1,0.20001 1.5,0.5 0.40001,0.29999 0.69999,0.70001 0.90001,1.20001 1.69999,-1.1 3.59999,-1.70001 5.69999,-1.70001 1.59999,0 3.10001,0.29999 4.4,0.9 1.39999,0.6 2.6,1.6 3.6,2.89999 2.20001,-2.5 4.9,-3.79999 8.10001,-3.79999 1.39999,0 2.79999,0.29999 4.1,0.9 1.30002,0.6 2.4,1.30001 3.4,2.30001 1,1 1.69998,2.09998 2.29999,3.4 0.6,1.29999 0.80001,2.69998 0.80001,4.1 l 0,13.69999 -0.20001,0 z" />
    <path
       style="fill:#1db7c9"
       inkscape:connector-curvature="0"
       id="svg_14"
       d="m 311.79999,335.70001 c 1.70001,0 3.29999,0.29999 4.79999,1 1.5,0.70001 2.80001,1.60001 3.90002,2.70001 1.09998,1.09998 2,2.5 2.69998,4 0.60001,1.5 1,3.09998 1,4.9 0,3.1 -0.89999,5.69998 -2.79999,8 1.19999,0.69998 2.29999,1.6 3.19999,2.5 0.90002,0.89999 1.70001,2 2.30001,3.1 0.60001,1.09998 1.10001,2.29999 1.4,3.5 0.29999,1.19999 0.5,2.5 0.5,3.79999 0,2 -0.4,4 -1.20001,5.79999 -0.80002,1.79999 -1.79999,3.40002 -3.09998,4.70001 -1.30002,1.4 -2.90002,2.4 -4.60001,3.20001 -1.80001,0.79999 -3.70001,1.19999 -5.70001,1.19999 l -11.5,0 c -0.39999,0 -0.79999,-0.10001 -1.19998,-0.29999 -0.40002,-0.20001 -0.70001,-0.4 -1,-0.70001 -0.30002,-0.29999 -0.5,-0.60001 -0.70001,-1 -0.20001,-0.4 -0.29999,-0.79999 -0.29999,-1.29999 l 0,-42 c 0,-0.4 0.1,-0.9 0.29999,-1.30002 0.20001,-0.39999 0.39999,-0.69998 0.70001,-1 0.29999,-0.29999 0.59998,-0.5 1,-0.69998 0.39999,-0.20001 0.79999,-0.30002 1.19998,-0.30002 l 9.10001,0 0,0.20001 z m -6,6.4 0,12.20001 6,0 c 0.79999,0 1.6,-0.20001 2.29999,-0.5 C 314.79999,353.5 315.5,353 316,352.5 c 0.5,-0.59998 1,-1.19998 1.29999,-2 0.29999,-0.69998 0.5,-1.5 0.5,-2.39999 0,-0.79999 -0.20001,-1.60001 -0.5,-2.29999 -0.29999,-0.70001 -0.79999,-1.4 -1.29999,-2 -0.60001,-0.60001 -1.20001,-1 -1.90002,-1.30002 -0.69999,-0.29999 -1.5,-0.5 -2.29999,-0.5 l -6,0 0,0.10001 z m 0,18.69998 0,16.89999 8.29999,0 c 1.20001,0 2.20001,-0.19998 3.20001,-0.69998 1,-0.5 1.89999,-1 2.6,-1.80002 0.69999,-0.79999 1.29999,-1.69998 1.79999,-2.69998 0.4,-1 0.70001,-2.10001 0.70001,-3.30002 0,-1.1 -0.20001,-2.19998 -0.70001,-3.29999 -0.39999,-1 -1,-1.89999 -1.79999,-2.70001 -0.80001,-0.79999 -1.6,-1.39999 -2.70001,-1.79999 -1.1,-0.39999 -2.1,-0.70001 -3.19998,-0.70001 l -8.20001,0 0,0.10001 z" />
    <path
       style="fill:#1db7c9"
       inkscape:connector-curvature="0"
       id="svg_15"
       d="m 339.10001,353.39999 0,0.60001 c 1.5,-1.20001 3.1,-2.10001 4.89999,-2.80002 1.70001,-0.6 3.60001,-1 5.60001,-1 0.89999,0 1.80001,0.10001 2.80001,0.20001 1,0.10001 1.9,0.29999 2.79999,0.60001 0.79999,0.29999 1.5,0.69998 2.10001,1.29999 0.6,0.5 0.79999,1.29999 0.79999,2.1 0,0.4 -0.10001,0.9 -0.29999,1.19999 -0.20001,0.40002 -0.4,0.70001 -0.70001,1 -0.29999,0.30001 -0.60001,0.5 -1,0.70001 -0.4,0.20001 -0.79999,0.20001 -1.19999,0.20001 -0.40002,0 -0.80001,-0.10001 -1.30001,-0.30002 -1.29999,-0.5 -2.60001,-0.79999 -4.10001,-0.79999 -1.5,0 -2.79999,0.29999 -4.09998,0.79999 C 344.10001,357.79999 343,358.5 342.10001,359.5 c -0.9,1 -1.69999,2.09998 -2.19999,3.39999 -0.5,1.29999 -0.80001,2.69999 -0.80001,4.10001 l 0,13.79999 c 0,0.89999 -0.29999,1.6 -0.9,2.20001 -0.6,0.59998 -1.29999,0.89999 -2.20001,0.89999 -0.89999,0 -1.59998,-0.30001 -2.19998,-0.89999 -0.60001,-0.60001 -0.9,-1.40002 -0.9,-2.20001 l 0,-27.60001 c 0,-0.89999 0.29999,-1.6 0.9,-2.19998 0.6,-0.60001 1.29999,-0.90002 2.19998,-0.90002 0.90002,0 1.60001,0.30001 2.20001,0.90002 0.59998,0.70001 0.9,1.5 0.9,2.39999 z" />
    <path
       style="fill:#1db7c9"
       inkscape:connector-curvature="0"
       id="svg_16"
       d="m 387,374.5 c 0.89999,0 1.60001,0.29999 2.20001,0.89999 0.59998,0.60001 0.9,1.30002 0.9,2.30002 0,0.9 -0.30002,1.59998 -0.9,2.29999 -3.1,2.70001 -6.70001,4.10001 -10.90002,4.10001 -4.59998,0 -8.5,-1.70002 -11.79999,-5 -3.29999,-3.30002 -4.89999,-7.30002 -4.89999,-12 0,-4.70002 1.6,-8.70002 4.89999,-12 3.29999,-3.30002 7.20001,-5 11.79999,-5 4.6,0 8.5,1.69998 11.80002,5 1.6,1.6 2.79998,3.5 3.69998,5.5 0.80002,2 1.20001,4.19998 1.20001,6.5 0,0.89999 -0.29999,1.69998 -0.89999,2.29998 -0.60001,0.60001 -1.30002,0.9 -2.20002,0.9 l -23.6,0 c 0.30002,1.1 0.80002,2.1 1.5,3 0.70001,0.90002 1.40002,1.70001 2.30002,2.40002 0.89999,0.69998 1.89999,1.19998 2.89999,1.5 1.10001,0.4 2.20001,0.5 3.29999,0.5 1.30002,0 2.5,-0.20001 3.6,-0.6 1.10001,-0.4 2.10001,-1 3,-1.80002 0.60001,-0.5 1.30002,-0.69998 2.10001,-0.79999 z m 1.29999,-10.5 c -0.29999,-1.10001 -0.79999,-2.10001 -1.5,-3 -0.70001,-0.89999 -1.4,-1.70001 -2.29999,-2.39999 -0.90002,-0.70002 -1.90002,-1.20002 -2.90002,-1.5 -1.09998,-0.4 -2.19999,-0.5 -3.29999,-0.5 -1.10001,0 -2.20001,0.19998 -3.29999,0.5 -1.10001,0.39999 -2.10001,0.89999 -2.90002,1.5 -0.9,0.69998 -1.69999,1.39999 -2.29999,2.39999 -0.70001,0.89999 -1.10001,1.89999 -1.5,3 l 20,0 z" />
    <path
       style="fill:#1db7c9"
       inkscape:connector-curvature="0"
       id="svg_17"
       d="m 426.89999,380.89999 0,-0.6 c -1.5,1.20001 -3.1,2.1 -4.89999,2.79999 -1.70001,0.6 -3.60001,1 -5.60001,1 -4.6,0 -8.5,-1.69999 -11.80001,-5 -3.29999,-3.29999 -4.9,-7.29999 -4.9,-12 0,-4.69999 1.60001,-8.69999 4.9,-12 3.30001,-3.29999 7.20001,-5 11.80001,-5 4.60001,0 8.5,1.70001 11.79999,5 3.30002,3.30001 4.9,7.30001 4.9,12 l 0,13.80001 c 0,0.9 -0.29999,1.60001 -0.9,2.19999 -0.6,0.6 -1.29999,0.90002 -2.19998,0.90002 -0.90002,0 -1.60001,-0.30002 -2.20001,-0.90002 -0.59998,-0.59998 -0.9,-1.29999 -0.9,-2.19999 z m -10.5,-24.39999 c -1.5,0 -2.80001,0.29999 -4.1,0.79999 -1.29999,0.6 -2.4,1.30002 -3.29999,2.30002 -0.90002,1 -1.70001,2.1 -2.20001,3.39999 -0.5,1.29999 -0.79999,2.70001 -0.79999,4.10001 0,1.39999 0.29999,2.79998 0.79999,4.1 0.5,1.29999 1.29999,2.4 2.20001,3.4 0.89999,1 2,1.69998 3.29999,2.29998 1.29999,0.60001 2.6,0.80002 4.1,0.80002 1.4,0 2.79999,-0.30002 4.10001,-0.80002 1.29999,-0.6 2.39999,-1.29998 3.29999,-2.29998 0.89999,-1 1.70001,-2.10001 2.20001,-3.4 0.5,-1.30002 0.79999,-2.6 0.79999,-4.1 0,-1.5 -0.29999,-2.80002 -0.79999,-4.10001 -0.5,-1.29999 -1.30002,-2.39999 -2.20001,-3.39999 -0.9,-1 -2.10001,-1.70002 -3.29999,-2.30002 -1.29999,-0.5 -2.60001,-0.79999 -4.10001,-0.79999 z" />
    <path
       style="fill:#1db7c9"
       inkscape:connector-curvature="0"
       id="svg_18"
       d="m 437.79999,380.89999 0,-42 c 0,-0.89999 0.29999,-1.6 0.89999,-2.30001 0.60001,-0.59998 1.30002,-0.9 2.20001,-0.9 0.9,0 1.60001,0.30002 2.19999,0.9 0.6,0.6 0.90002,1.40002 0.90002,2.30001 l 0,23.60001 17.79999,-11.80002 c 0.5,-0.29999 1.1,-0.5 1.70001,-0.5 0.39999,0 0.79999,0.10001 1.19998,0.20001 0.4,0.19999 0.70001,0.4 1,0.69999 0.30002,0.30001 0.5,0.6 0.70001,1 0.19999,0.40002 0.29999,0.80001 0.29999,1.20001 0,1.1 -0.39999,2 -1.19998,2.5 L 453,364 l 12.79999,14.59998 c 0.6,0.6 0.89999,1.40002 0.89999,2.20001 0,0.39999 -0.1,0.79999 -0.29999,1.20001 -0.20001,0.39999 -0.39999,0.69998 -0.70001,1 -0.29999,0.29999 -0.6,0.5 -1,0.69998 -0.39999,0.20001 -0.79999,0.20001 -1.19998,0.20001 -0.80002,0 -1.5,-0.30001 -2.10001,-0.80001 L 447.59998,367.39999 444,370 l 0,10.89999 c 0,0.9 -0.29999,1.60001 -0.89999,2.20002 -0.60001,0.6 -1.30002,0.89999 -2.20002,0.89999 -0.89999,0 -1.6,-0.29999 -2.19998,-0.89999 -0.6,-0.60001 -0.90002,-1.30002 -0.90002,-2.20002 z" />
    <path
       style="fill:#1db7c9"
       inkscape:connector-curvature="0"
       id="svg_19"
       d="m 489.70001,342 c -5.5,0 -8.20001,2.79999 -8.20001,8.29999 l 0,1.6 6,0 c 0.90002,0 1.60001,0.30002 2.20001,0.9 0.60001,0.6 0.9,1.40002 0.9,2.20001 0,0.89999 -0.29999,1.60001 -0.9,2.29999 -0.6,0.6 -1.29999,0.90002 -2.20001,0.90002 l -6,0 0,22.69998 c 0,0.4 -0.1,0.80002 -0.19998,1.20002 -0.20001,0.39999 -0.4,0.69998 -0.70001,1 -0.29999,0.29998 -0.60001,0.5 -1,0.69998 C 479.20001,384 478.80002,384 478.40002,384 c -0.40002,0 -0.80001,-0.10001 -1.20001,-0.20001 -0.39999,-0.19998 -0.70001,-0.4 -1,-0.69998 -0.29999,-0.30002 -0.5,-0.60001 -0.70001,-1 -0.19998,-0.4 -0.19998,-0.80002 -0.19998,-1.20002 l 0,-22.69998 -1.4,0 c -0.90002,0 -1.6,-0.30002 -2.20001,-0.90002 -0.6,-0.59998 -0.89999,-1.4 -0.89999,-2.29999 0,-0.89999 0.29999,-1.70001 0.89999,-2.29999 0.60001,-0.6 1.29999,-0.90002 2.20001,-0.90002 l 1.4,0 0,-1.59998 c 0,-9.80002 4.79999,-14.6 14.39999,-14.6 0.9,0 1.60001,0.29998 2.20001,0.89999 0.59998,0.60001 0.9,1.39999 0.9,2.20001 0,0.9 -0.30002,1.59998 -0.9,2.29999 -0.60003,0.70001 -1.30001,1 -2.20001,1 z" />
    <path
       style="fill:#1db7c9"
       inkscape:connector-curvature="0"
       id="svg_20"
       d="m 522.20001,380.89999 0,-0.6 c -1.5,1.20001 -3.09997,2.1 -4.90002,2.79999 -1.69995,0.6 -3.59998,1 -5.59998,1 -4.6,0 -8.5,-1.69999 -11.79999,-5 -3.30001,-3.29999 -4.90002,-7.29999 -4.90002,-12 0,-4.69999 1.60001,-8.69999 4.90002,-12 3.29999,-3.29999 7.19999,-5 11.79999,-5 4.59998,0 8.5,1.70001 11.79999,5 3.29999,3.30001 4.90002,7.30001 4.90002,12 l 0,13.80001 c 0,0.9 -0.29998,1.60001 -0.90002,2.19999 -0.59998,0.6 -1.29999,0.90002 -2.20001,0.90002 -0.89996,0 -1.59998,-0.30002 -2.19995,-0.90002 C 522.5,382.5 522.20001,381.79999 522.20001,380.89999 z M 511.79999,356.5 c -1.5,0 -2.79999,0.29999 -4.10001,0.79999 -1.29999,0.6 -2.39999,1.30002 -3.29999,2.30002 -0.89999,1 -1.70001,2.1 -2.20001,3.39999 -0.5,1.29999 -0.79999,2.70001 -0.79999,4.10001 0,1.39999 0.29999,2.79998 0.79999,4.1 0.5,1.29999 1.30002,2.4 2.20001,3.4 0.9,1 2,1.69998 3.29999,2.29998 1.30002,0.60001 2.60001,0.80002 4.10001,0.80002 1.40002,0 2.79999,-0.30002 4.09997,-0.80002 1.30005,-0.6 2.40003,-1.29998 3.30005,-2.29998 0.89997,-1 1.69995,-2.10001 2.19995,-3.4 0.5,-1.30002 0.80005,-2.6 0.80005,-4.1 0,-1.5 -0.30005,-2.80002 -0.80005,-4.10001 -0.5,-1.29999 -1.29998,-2.39999 -2.19995,-3.39999 -0.89996,-1 -2.10003,-1.70002 -3.30005,-2.30002 -1.29998,-0.5 -2.69995,-0.79999 -4.09997,-0.79999 z" />
    <path
       style="fill:#1db7c9"
       inkscape:connector-curvature="0"
       id="svg_21"
       d="m 539.29999,368 c -1.90003,-0.70001 -3.20001,-1.5 -3.90003,-2.20001 l 0,0 c -1.5,-1.59998 -2.29998,-3.4 -2.29998,-5.5 0,-1.5 0.40002,-2.9 1.20001,-4.19998 0.79999,-1.20002 1.90002,-2.30002 3.09997,-3.20002 1.30005,-0.89999 2.70002,-1.5 4.40003,-2 1.59997,-0.5 3.20001,-0.69998 4.90002,-0.69998 5,0 9.19995,2 12.79999,6.09998 0.39996,0.5 0.59998,1.20001 0.59998,1.90002 0,0.9 -0.29999,1.69998 -0.89997,2.29999 -0.60003,0.60001 -1.30005,0.89999 -2.20001,0.89999 -0.60004,0 -1.20001,-0.19998 -1.60004,-0.5 C 555,360.5 554.5,360.10001 554.09998,359.70001 c -2,-2.1 -4.5,-3.1 -7.39997,-3.1 -2.90002,0 -5.10003,0.89999 -6.90002,2.69998 -0.29999,0.30002 -0.5,0.80002 -0.5,1.30002 0,0.6 0.29999,0.89999 0.79999,1.1 L 554,366.39999 c 1.89996,0.80002 3.29999,1.5 3.89996,2.20002 l 0,0 c 1.5,1.6 2.30005,3.39999 2.30005,5.5 0,1.6 -0.40002,2.89999 -1.20001,4.19998 -0.79999,1.20001 -1.90002,2.30002 -3.10004,3.20001 -1.29998,0.89999 -2.69995,1.5 -4.29998,2 -1.59998,0.5 -3.20002,0.70001 -4.89997,0.70001 -5,0 -9.30005,-2 -12.80005,-6 -0.39996,-0.6 -0.69995,-1.20001 -0.69995,-2 0,-0.90002 0.29999,-1.70001 0.89997,-2.30002 0.60003,-0.6 1.29998,-0.89999 2.20001,-0.89999 0.70001,0 1.20001,0.20001 1.70001,0.60001 0.5,0.39999 0.89996,0.79998 1.29999,1.1 2,2.09998 4.5,3.09998 7.40002,3.09998 2.79999,0 5.09998,-0.9 6.89996,-2.69998 0.29999,-0.30002 0.40003,-0.80002 0.40003,-1.20002 0,-0.6 -0.29999,-1 -0.79999,-1.19998 L 539.29999,368 z" />
    <path
       style="fill:#1db7c9"
       inkscape:connector-curvature="0"
       id="svg_22"
       d="m 567.70001,350.20001 1.40003,0 0,-11.39999 c 0,-0.9 0.29998,-1.60001 0.89996,-2.20001 0.60004,-0.60001 1.29999,-0.9 2.20001,-0.9 0.90003,0 1.59998,0.29999 2.20001,0.9 0.59998,0.6 0.89997,1.39999 0.89997,2.20001 l 0,11.39999 3.70001,0 c 0.90002,0 1.60004,0.29999 2.20001,0.9 0.59998,0.6 0.90002,1.39999 0.90002,2.20001 0,0.89999 -0.30004,1.6 -0.90002,2.29999 -0.59998,0.6 -1.29999,0.89999 -2.20001,0.89999 l -3.70001,0 0,15.20001 c 0,4 2,6 6,6 0.90002,0 1.60003,0.29999 2.20001,0.9 0.60004,0.6 0.90002,1.39999 0.90002,2.20001 0,0.89999 -0.29999,1.6 -0.90002,2.29999 -0.59998,0.6 -1.29999,0.89999 -2.20001,0.89999 -8.09998,0 -12.19996,-4.09998 -12.19996,-12.29999 l 0,-15.20001 -1.40002,0 c -0.79999,0 -1.59998,-0.29999 -2.20001,-0.89999 -0.59998,-0.60001 -0.89996,-1.4 -0.89996,-2.29999 0,-0.9 0.29998,-1.60001 0.89996,-2.20001 0.70001,-0.60001 1.40002,-0.9 2.20001,-0.9 z" />
  </g>
  <path
     style="fill:#5d0d0b"
     inkscape:connector-curvature="0"
     id="svg_23"
     d="m 163.1375,315.61874 c -1.59999,-2 -3.59999,-3.80001 -5.4,-5.20001 -7.1,-5.5 -15.6,-9 -24.40001,-10 -13.79998,-1.5 -24.19999,3.80002 -36,10 -16,8.30002 -35.89999,14.10001 -53.499988,8.30002 -14.599998,-4.80002 -25,-16.90002 -24.599998,-32.79999 0.299995,-10.60003 6.099998,-20.60003 14.799995,-26.30002 10.099998,-6.5 21.100001,-5.5 31.300001,0 0.3,-0.1 0.6,-0.19998 0.9,-0.29998 -3.6,-6 -6.8,-12.20002 -9.8,-18.60001 -0.3,-0.3 -0.7,-0.5 -1,-0.8 -5.800002,-5.4 -8.499999,-14.09999 -11.300002,-21.4 -1.099998,-3 -1.899994,-5.8 -2.399994,-8.69999 -0.5,0.1 -1,0.1 -1.600006,0.1 -0.1,0 -0.299995,0 -0.399994,0 -1.400002,12.90001 -9.400002,24.3 -16.400002,35.3 -8.200005,12.89999 -15.5,27 -18.200001,42.29999 -6.700001,38 41.700001,52.5 70.099989,44.79999 2.8,-0.79999 5.6,-1.69999 8.3,-2.79999 8.2,-3.20001 15.89999,-7.60001 23.5,-12 11.2,-6.5 25.3,-5.60001 37,-1 5.89999,2.29999 11.39999,5.5 16.2,9.6 2.90001,2.5 4.90001,4.79999 6,-0.80001 0.70001,-3.59999 -0.99999,-7.09999 -3.09999,-9.7 z" />
  <path
     style="fill:#5d0d0b"
     inkscape:connector-curvature="0"
     id="svg_24"
     d="m 177.1375,339.41876 c -5.09999,3.20001 -12.4,1.10001 -16.09999,-3.70001 -3.70002,-4.79999 -4.30001,-11.59998 -2.80001,-17.5 0.5,-2 1.30001,-4 2.80001,-5.5 1.39999,-1.29999 3.19999,-2 5,-2.59998 8.79998,-2.90002 18.19999,-4.90002 27.5,-4.30001 1.39999,0.1 3.79998,-0.10001 4.59999,0.80001 1.1,1.29999 0.90001,6.4 1,8.09998 0.8,9 2.1,16 -6,21.80002 -11.30001,8 -31.7,8.29999 -34.80001,-8.60001 -1.29998,-7 2,-14.6 8,-18.20001" />
  <path
     style="fill:#1db7c9"
     inkscape:connector-curvature="0"
     id="svg_25"
     d="m 211.13751,328.21875 c -0.5,0.29999 -1,0.20001 -1.5,0.20001 -5.3,-0.6 -10.6,-1.1 -15.90001,-1.70001 -0.59999,-4.10001 -1.19999,-8.10001 -1.79999,-12.20001 6,-1.19998 12.29999,-1.09998 18.30001,0.30002 0.5,3.5 1.1,7.1 1.6,10.6 0.19999,1.09998 0.19999,2.29999 -0.70001,2.79999 z" />
  <path
     style="fill:#1db7c9"
     inkscape:connector-curvature="0"
     id="svg_26"
     d="m 196.7375,335.21875 c -0.5,0.29999 -1,0.20001 -1.5,0.20001 -5.3,-0.6 -10.6,-1.1 -15.90001,-1.70001 -0.59999,-4.10001 -1.19999,-8.10001 -1.79998,-12.20001 6,-1.19998 12.29998,-1.09998 18.29998,0.30002 0.5,3.5 1.10001,7.1 1.60001,10.6 0.10001,1 0.2,2.29999 -0.7,2.79999 z" />
  <path
     style="fill:#5d0d0b"
     inkscape:connector-curvature="0"
     id="svg_27"
     d="m 94.1375,107.51875 c -4.59999,-9.9 -1.80001,-2.7 -2,-2.7 -0.4,0 -9.09999,10.3 -9.09999,9.9 0.29998,3.2 -0.70002,6.60001 -3,8.89999 -1.90001,1.90001 -4.30001,2.90001 -6.70001,3 -1,2 -2.2,3.90001 -3.7,5.5 12.8,-2.29998 31.8,-3.5 43.69999,2.90001" />
  <path
     style="fill:#5d0d0b"
     inkscape:connector-curvature="0"
     id="svg_28"
     d="m 140.4375,249.11874 c 4,3.10001 8.89999,6 9.89999,11 -7.5,-0.5 -14.89999,-1 -22.39999,-1.5 -1.7,-9.70001 -2.10001,-19.6 -1.3,-29.5 2.5,7.80001 7.3,14.90001 13.8,20 z" />
  <path
     style="fill:#5d0d0b"
     inkscape:connector-curvature="0"
     id="svg_29"
     d="m 418.83749,225.31876 c -2.80001,-0.4 -5.70001,-0.9 -8.30001,-2.09999 -6.5,-3.20002 -8.5,-11.90001 -12,-17.80001 -6.9,-11.3 -16.79999,-18.6 -24.9,-28.40001 1,7.70001 6.80002,14.60001 10.30002,21.30001 4.39999,8.5 8.69998,16.90001 11.29999,26.19999 2.70001,9.5 3.6,19.70002 1.6,29.40001 -1.1,5 -3,9.9 -5.80001,14.29999 -1.4,2.20001 -3,4.30002 -4.9,6.20001 -1.69998,1.79999 -4.1,3.10001 -5.29999,5.29999 5.10001,-1.69998 10.9,-3.89999 15.19999,-7.29999 3.90002,-3.1 3.80001,-6.20001 4.70001,-10.70001 0.79999,-4.29999 4.70001,-7 9,-8.79999 3.39999,-1.5 7,-2.39999 9.70001,-3.20001 0.79999,-0.19998 1.69998,-0.5 2.29999,-1.09998 1.6,-1.70001 0.29999,-4.30001 1.20001,-6.20001 0.59998,-1.3 2.5,-2.8 3.39999,-4.1 2.4,-3.5 4.29999,-7.4 7.9,-9.9 0.89999,-0.6 2,-1.3 1.89999,-2.3 -5.79999,0.1 -11.59997,-0.10001 -17.29999,-0.8 z" />
  <path
     style="fill:none"
     inkscape:connector-curvature="0"
     id="svg_30"
     d="m 262.13751,38.21875 c 0.4,3.5 3.29999,6.599998 6.79999,7 4.30002,-7.900002 7.5,-16.400002 9.30002,-25.200001" />
  <g
     id="svg_31"
     transform="matrix(1.1538139,0,0,1.1538139,-83.098536,-65.17485)">
    <path
       style="fill:#5d0d0b"
       inkscape:connector-curvature="0"
       id="svg_32"
       d="M 75,406.39999 C 76.300003,406.19998 78.099998,406 80.300003,406 c 2.699997,0 4.699997,0.59998 6,1.79999 1.199997,1 1.899994,2.6 1.899994,4.5 0,2 -0.599998,3.5 -1.599998,4.6 -1.5,1.60001 -3.799995,2.4 -6.5,2.4 -0.799995,0 -1.599998,0 -2.199997,-0.20001 l 0,8.70001 -2.900002,0 0,-21.4 z m 2.800003,10.4 C 78.400001,417 79.199997,417 80.099998,417 c 3.300003,0 5.300003,-1.60001 5.300003,-4.60001 0,-2.89999 -2,-4.20001 -5,-4.20001 -1.200005,0 -2.099998,0.10001 -2.599998,0.20001 l 0,8.4 z" />
    <path
       style="fill:#5d0d0b"
       inkscape:connector-curvature="0"
       id="svg_33"
       d="m 91.199997,417.10001 c 0,-1.79999 0,-3.4 -0.1,-4.79999 l 2.400002,0 0.1,3 0.1,0 c 0.700005,-2.10001 2.400002,-3.4 4.200005,-3.4 0.299995,0 0.5,0 0.799995,0.1 l 0,2.70001 c -0.299995,-0.1 -0.599998,-0.1 -0.899994,-0.1 -2,0 -3.300003,1.5 -3.700005,3.6 C 94,418.60001 94,419 94,419.5 l 0,8.30002 -2.699997,0 0,-10.70001 -0.100006,0 z" />
    <path
       style="fill:#5d0d0b"
       inkscape:connector-curvature="0"
       id="svg_34"
       d="m 115.1,419.89999 c 0,5.69999 -3.9,8.19999 -7.6,8.19999 -4.1,0 -7.3,-3.09998 -7.3,-8 0,-5.19999 3.3,-8.19999 7.6,-8.19999 4.3,0 7.3,3.20002 7.3,8 z M 102.9,420 c 0,3.39999 1.9,6 4.6,6 2.7,0 4.6,-2.5 4.6,-6 0,-2.60001 -1.3,-6 -4.6,-6 -3.1,0 -4.6,3.10001 -4.6,6 z" />
    <path
       style="fill:#5d0d0b"
       inkscape:connector-curvature="0"
       id="svg_35"
       d="m 131.7,412.20001 c -0.1,1.10001 -0.1,2.4 -0.1,4.29999 l 0,9 c 0,3.60001 -0.70002,5.70001 -2.20002,7.10001 C 127.9,434 125.8,434.5 123.8,434.5 c -1.8,0 -3.9,-0.39999 -5.1,-1.29999 l 0.7,-2.1 c 1,0.6 2.6,1.20001 4.5,1.20001 2.8,0 4.9,-1.5 4.9,-5.4 l 0,-1.70001 -0.1,0 c -0.9,1.4 -2.5,2.60001 -4.9,2.60001 -3.8,0 -6.5,-3.30002 -6.5,-7.60001 0,-5.29999 3.4,-8.20001 6.9,-8.20001 2.7,0 4.1,1.40002 4.8,2.70001 l 0.10001,0 0.1,-2.29999 2.5,0 0,-0.20001 z m -2.80001,6.19998 c 0,-0.5 0,-0.89999 -0.19999,-1.30001 -0.5,-1.59998 -1.90001,-3 -3.90001,-3 -2.7,0 -4.5,2.30001 -4.5,5.90002 0,3 1.5,5.59998 4.5,5.59998 1.7,0 3.3,-1.09998 3.90001,-2.9 0.19999,-0.5 0.19999,-1 0.19999,-1.5 l 0,-2.79999 z" />
    <path
       style="fill:#5d0d0b"
       inkscape:connector-curvature="0"
       id="svg_36"
       d="m 136,417.10001 c 0,-1.79999 0,-3.4 -0.10001,-4.79999 l 2.40001,0 0.1,3 0.10001,0 c 0.7,-2.10001 2.39999,-3.4 4.2,-3.4 0.3,0 0.5,0 0.8,0.1 l 0,2.70001 c -0.3,-0.1 -0.60001,-0.1 -0.89999,-0.1 -2,0 -3.30001,1.5 -3.70002,3.6 -0.1,0.4 -0.1,0.79999 -0.1,1.29999 l 0,8.30002 -2.8,0 0,-10.70001 z" />
    <path
       style="fill:#5d0d0b"
       inkscape:connector-curvature="0"
       id="svg_37"
       d="m 154.60001,427.79999 -0.2,-2 -0.10001,0 c -0.89999,1.20001 -2.5,2.29999 -4.69999,2.29999 -3.09999,0 -4.7,-2.19999 -4.7,-4.5 0,-3.69999 3.3,-5.79999 9.2,-5.79999 l 0,-0.29999 c 0,-1.30002 -0.30001,-3.60001 -3.5,-3.60001 -1.4,0 -2.9,0.4 -4,1.19999 l -0.59999,-1.9 c 1.29998,-0.79999 3.09999,-1.39999 5,-1.39999 4.69999,0 5.79998,3.20001 5.79998,6.29999 l 0,5.80001 c 0,1.29999 0.10001,2.69999 0.30001,3.69999 l -2.5,0 0,0.20001 z m -0.40001,-8 c -3,-0.10001 -6.5,0.5 -6.5,3.5 0,1.79999 1.19999,2.70001 2.6,2.70001 2,0 3.30001,-1.30002 3.7,-2.60001 0.10001,-0.30001 0.2,-0.6 0.2,-0.89999 l 0,-2.70001 z" />
    <path
       style="fill:#5d0d0b"
       inkscape:connector-curvature="0"
       id="svg_38"
       d="m 161.39999,416.39999 c 0,-1.6 0,-2.89999 -0.1,-4.20001 l 2.40001,0 0.1,2.5 0.1,0 c 0.9,-1.5 2.30001,-2.89999 4.80001,-2.89999 2.09999,0 3.69999,1.29999 4.29998,3.1 l 0.10001,0 c 0.5,-0.89999 1.10001,-1.5 1.7,-2 0.90001,-0.70001 1.90001,-1.1 3.40001,-1.1 2,0 5,1.29999 5,6.70001 l 0,9.09998 -2.70001,0 0,-8.59998 c 0,-3 -1.1,-4.79999 -3.29999,-4.79999 -1.60001,0 -2.80001,1.19998 -3.30001,2.59998 -0.1,0.40002 -0.19999,0.90002 -0.19999,1.40002 l 0,9.59998 -2.7,0 0,-9.29999 c 0,-2.5 -1.10001,-4.29999 -3.2,-4.29999 -1.69999,0 -3,1.4 -3.40001,2.79999 -0.2,0.39999 -0.2,0.89999 -0.2,1.39999 l 0,9.4 -2.7,0 0,-11.4 -0.10001,0 z" />
    <path
       style="fill:#5d0d0b"
       inkscape:connector-curvature="0"
       id="svg_39"
       d="m 187.7,416.39999 c 0,-1.6 0,-2.89999 -0.1,-4.20001 l 2.39999,0 0.10001,2.5 0.1,0 c 0.90001,-1.5 2.3,-2.89999 4.8,-2.89999 2.10001,0 3.7,1.29999 4.3,3.1 l 0.1,0 c 0.5,-0.89999 1.10001,-1.5 1.70002,-2 0.89999,-0.70001 1.89999,-1.1 3.39999,-1.1 2,0 5,1.29999 5,6.70001 l 0,9.09998 -2.7,0 0,-8.59998 c 0,-3 -1.1,-4.79999 -3.3,-4.79999 -1.60001,0 -2.8,1.19998 -3.3,2.59998 -0.1,0.40002 -0.2,0.90002 -0.2,1.40002 l 0,9.59998 -2.7,0 0,-9.29999 c 0,-2.5 -1.1,-4.29999 -3.19999,-4.29999 -1.70002,0 -3,1.4 -3.40001,2.79999 -0.2,0.39999 -0.2,0.89999 -0.2,1.39999 l 0,9.4 -2.7,0 0,-11.4 -0.1,0 z" />
    <path
       style="fill:#5d0d0b"
       inkscape:connector-curvature="0"
       id="svg_40"
       d="m 217.10001,407.89999 c 0,1 -0.7,1.69999 -1.80001,1.69999 -1,0 -1.69999,-0.79999 -1.69999,-1.69999 0,-1 0.69999,-1.80001 1.69999,-1.80001 1.2,3e-5 1.80001,0.80001 1.80001,1.80001 z m -3.10001,19.9 0,-15.5 2.8,0 0,15.5 -2.8,0 z" />
    <path
       style="fill:#5d0d0b"
       inkscape:connector-curvature="0"
       id="svg_41"
       d="m 221.39999,416.39999 c 0,-1.6 0,-2.89999 -0.1,-4.20001 l 2.5,0 0.19999,2.60001 0.10001,0 c 0.8,-1.5 2.5,-2.9 5.10001,-2.9 2.09999,0 5.39999,1.29999 5.39999,6.60001 l 0,9.29999 -2.8,0 0,-8.9 c 0,-2.5 -0.9,-4.6 -3.5,-4.6 -1.80001,0 -3.30001,1.29999 -3.7,2.89999 -0.10001,0.4 -0.2,0.80002 -0.2,1.30002 l 0,9.29999 -2.8,0 0,-11.4 -0.2,0 z" />
    <path
       style="fill:#5d0d0b"
       inkscape:connector-curvature="0"
       id="svg_42"
       d="m 252.10001,412.20001 c -0.1,1.10001 -0.1,2.4 -0.1,4.29999 l 0,9 c 0,3.60001 -0.70002,5.70001 -2.20002,7.10001 C 248.3,434 246.20001,434.5 244.20001,434.5 c -1.8,0 -3.90001,-0.39999 -5.1,-1.29999 l 0.69999,-2.1 c 1,0.6 2.60001,1.20001 4.5,1.20001 2.80001,0 4.90001,-1.5 4.90001,-5.4 l 0,-1.70001 -0.1,0 c -0.9,1.4 -2.5,2.60001 -4.9,2.60001 -3.8,0 -6.5,-3.30002 -6.5,-7.60001 0,-5.29999 3.4,-8.20001 6.9,-8.20001 2.69999,0 4.1,1.40002 4.8,2.70001 l 0.10001,0 0.1,-2.29999 2.5,0 0,-0.20001 z M 249.2,418.39999 c 0,-0.5 0,-0.89999 -0.2,-1.30001 -0.5,-1.59998 -1.89999,-3 -3.89999,-3 -2.70002,0 -4.5,2.30001 -4.5,5.90002 0,3 1.5,5.59998 4.5,5.59998 1.69999,0 3.29998,-1.09998 3.89999,-2.9 0.2,-0.5 0.2,-1 0.2,-1.5 l 0,-2.79999 z" />
    <path
       style="fill:#5d0d0b"
       inkscape:connector-curvature="0"
       id="svg_43"
       d="m 263.29999,416.39999 c 0,-1.6 0,-2.89999 -0.10001,-4.20001 l 2.5,0 0.20001,2.60001 0.10001,0 c 0.79999,-1.5 2.5,-2.9 5.09998,-2.9 2.1,0 5.40002,1.29999 5.40002,6.60001 l 0,9.29999 -2.80002,0 0,-8.9 c 0,-2.5 -0.89999,-4.6 -3.5,-4.6 -1.79999,0 -3.29999,1.29999 -3.69998,2.89999 -0.10001,0.4 -0.20001,0.80002 -0.20001,1.30002 l 0,9.29999 -2.79999,0 0,-11.4 -0.20001,0 z" />
    <path
       style="fill:#5d0d0b"
       inkscape:connector-curvature="0"
       id="svg_44"
       d="m 293.60001,423.5 c 0,1.60001 0,3 0.1,4.20001 l -2.5,0 -0.20001,-2.5 0,0 c -0.70001,1.19998 -2.29999,2.9 -5.10001,2.9 -2.39999,0 -5.29998,-1.30002 -5.29998,-6.80002 l 0,-9.09998 2.79998,0 0,8.59998 c 0,2.90002 0.9,4.90002 3.4,4.90002 1.90002,0 3.20001,-1.30002 3.70001,-2.6 0.20001,-0.4 0.29999,-0.9 0.29999,-1.4 l 0,-9.5 2.80002,0 0,11.29999 z" />
    <path
       style="fill:#5d0d0b"
       inkscape:connector-curvature="0"
       id="svg_45"
       d="m 311.29999,412.20001 c -0.10001,1.10001 -0.10001,2.4 -0.10001,4.29999 l 0,9 c 0,3.60001 -0.69998,5.70001 -2.19998,7.10001 C 307.5,434 305.39999,434.5 303.39999,434.5 c -1.80001,0 -3.89999,-0.39999 -5.1,-1.29999 l 0.70001,-2.1 c 1,0.6 2.59998,1.20001 4.5,1.20001 2.79999,0 4.89999,-1.5 4.89999,-5.4 l 0,-1.70001 -0.1,0 c -0.9,1.4 -2.5,2.60001 -4.9,2.60001 -3.80001,0 -6.5,-3.30002 -6.5,-7.60001 0,-5.29999 3.4,-8.20001 6.9,-8.20001 2.70001,0 4.1,1.40002 4.79999,2.70001 l 0.1,0 0.10001,-2.29999 2.5,0 0,-0.20001 z M 308.5,418.39999 c 0,-0.5 0,-0.89999 -0.20001,-1.30001 -0.5,-1.59998 -1.9,-3 -3.9,-3 -2.69998,0 -4.5,2.30001 -4.5,5.90002 0,3 1.5,5.59998 4.5,5.59998 1.70002,0 3.30002,-1.09998 3.9,-2.9 0.20001,-0.5 0.20001,-1 0.20001,-1.5 l 0,-2.79999 z" />
    <path
       style="fill:#5d0d0b"
       inkscape:connector-curvature="0"
       id="svg_46"
       d="m 329,412.20001 c -0.10001,1.10001 -0.10001,2.4 -0.10001,4.29999 l 0,9 c 0,3.60001 -0.69998,5.70001 -2.19998,7.10001 -1.5,1.39999 -3.6,1.89999 -5.6,1.89999 -1.80002,0 -3.9,-0.39999 -5.10001,-1.29999 l 0.70001,-2.1 c 1,0.6 2.59998,1.20001 4.5,1.20001 2.79999,0 4.9,-1.5 4.9,-5.4 l 0,-1.70001 -0.10001,0 c -0.89999,1.4 -2.5,2.60001 -4.89999,2.60001 -3.80002,0 -6.5,-3.30002 -6.5,-7.60001 C 314.60001,414.90002 318,412 321.5,412 c 2.70001,0 4.10001,1.40002 4.79999,2.70001 l 0.1,0 0.10001,-2.29999 2.5,0 0,-0.20001 z m -2.89999,6.19998 c 0,-0.5 0,-0.89999 -0.19999,-1.30001 -0.5,-1.59998 -1.90002,-3 -3.90002,-3 -2.69998,0 -4.5,2.30001 -4.5,5.90002 0,3 1.5,5.59998 4.5,5.59998 1.70001,0 3.30002,-1.09998 3.90002,-2.9 0.19999,-0.5 0.19999,-1 0.19999,-1.5 l 0,-2.79999 z" />
    <path
       style="fill:#5d0d0b"
       inkscape:connector-curvature="0"
       id="svg_47"
       d="m 335,420.5 c 0.10001,3.79999 2.5,5.39999 5.20001,5.39999 2,0 3.19998,-0.39999 4.19998,-0.79998 l 0.5,2 c -1,0.39999 -2.69998,1 -5.1,1 -4.69998,0 -7.5,-3.10001 -7.5,-7.80002 0,-4.69998 2.70001,-8.4 7.20001,-8.4 5,0 6.29999,4.5 6.29999,7.30002 0,0.59998 -0.1,1 -0.1,1.29999 L 335,420.5 z m 8.10001,-2 c 0,-1.79999 -0.69999,-4.60001 -3.9,-4.60001 -2.79999,0 -4,2.60001 -4.29999,4.60001 l 8.19999,0 z" />
    <path
       style="fill:#5d0d0b"
       inkscape:connector-curvature="0"
       id="svg_48"
       d="m 352.60001,407.79999 0,4.5 4,0 0,2.1 -4,0 0,8.4 c 0,1.89999 0.5,3 2.1,3 0.70001,0 1.29999,-0.10001 1.60001,-0.20001 l 0.1,2.1 c -0.5,0.20001 -1.40002,0.4 -2.5,0.4 -1.30001,0 -2.30001,-0.4 -3,-1.19999 -0.80001,-0.80001 -1.1,-2.20001 -1.1,-4 l 0,-8.5 -2.4,0 0,-2.1 2.4,0 0,-3.70001 2.79999,-0.79999 z" />
    <path
       style="fill:#5d0d0b"
       inkscape:connector-curvature="0"
       id="svg_49"
       d="m 359.29999,424.89999 c 0.79999,0.5 2.29999,1.10001 3.70001,1.10001 2,0 3,-1 3,-2.30002 0,-1.29999 -0.80002,-2.1 -2.80002,-2.89999 -2.69998,-1 -4,-2.5 -4,-4.4 0,-2.5 2,-4.5 5.30002,-4.5 1.5,0 2.89999,0.4 3.79999,1 L 367.59998,415 C 367,414.59998 365.89999,414.09998 364.5,414.09998 c -1.60001,0 -2.60001,1 -2.60001,2.1 0,1.30002 0.9,1.9 2.9,2.60001 2.70001,1 4,2.39999 4,4.70001 0,2.69998 -2.10001,4.59998 -5.70001,4.59998 -1.69999,0 -3.19999,-0.4 -4.29999,-1.09998 l 0.5,-2.10001 z" />
    <path
       style="fill:#5d0d0b"
       inkscape:connector-curvature="0"
       id="svg_50"
       d="m 379.20001,427.79999 0,-13.4 -2.20001,0 0,-2.1 2.10001,0 0,-0.70001 c 0,-2.19999 0.5,-4.19999 1.79998,-5.4 1,-1 2.4,-1.39999 3.70002,-1.39999 1,0 1.79998,0.20001 2.39999,0.39999 l -0.39999,2.20001 c -0.4,-0.20001 -1,-0.39999 -1.80002,-0.39999 -2.4,0 -3,2.09998 -3,4.5 l 0,0.79999 3.70001,0 0,2.1 -3.70001,0 0,13.4 -2.59998,0 z" />
    <path
       style="fill:#5d0d0b"
       inkscape:connector-curvature="0"
       id="svg_51"
       d="m 401.5,419.89999 c 0,5.69999 -3.89999,8.19999 -7.60001,8.19999 -4.1,0 -7.29998,-3.09998 -7.29998,-8 0,-5.19999 3.29998,-8.19999 7.6,-8.19999 4.4,0 7.29999,3.20002 7.29999,8 z M 389.39999,420 c 0,3.39999 1.9,6 4.60001,6 2.69998,0 4.59998,-2.5 4.59998,-6 0,-2.60001 -1.29999,-6 -4.59998,-6 -3.20001,0 -4.60001,3.10001 -4.60001,6 z" />
    <path
       style="fill:#5d0d0b"
       inkscape:connector-curvature="0"
       id="svg_52"
       d="m 405,417.10001 c 0,-1.79999 0,-3.4 -0.10001,-4.79999 l 2.4,0 0.1,3 0.10001,0 c 0.70001,-2.10001 2.39999,-3.4 4.20001,-3.4 0.29999,0 0.5,0 0.79999,0.1 l 0,2.70001 c -0.29999,-0.1 -0.60001,-0.1 -0.89999,-0.1 -2,0 -3.30002,1.5 -3.70002,3.6 -0.1,0.4 -0.1,0.79999 -0.1,1.29999 l 0,8.30002 -2.79999,0 0,-10.70001 z" />
    <path
       style="fill:#5d0d0b"
       inkscape:connector-curvature="0"
       id="svg_53"
       d="m 423.10001,412.20001 3.30001,9.20001 c 0.29999,1 0.69999,2.19999 1,3.19999 l 0.1,0 c 0.30002,-0.9 0.60001,-2.10001 1,-3.19999 l 3,-9.1 2.90002,0 -4.20001,11.1 c -2,5.29999 -3.29999,8 -5.20001,9.69999 -1.39999,1.20001 -2.69998,1.70001 -3.39999,1.80001 L 420.90002,432.5 c 0.69999,-0.19998 1.59998,-0.69998 2.4,-1.39999 C 424.10001,430.5 425,429.40002 425.60001,428 c 0.1,-0.29999 0.20001,-0.5 0.20001,-0.69998 0,-0.20001 -0.10001,-0.4 -0.20001,-0.70001 l -5.69999,-14.29999 3.19999,0 0,-0.10001 z" />
    <path
       style="fill:#5d0d0b"
       inkscape:connector-curvature="0"
       id="svg_54"
       d="m 450.39999,419.89999 c 0,5.69999 -3.89999,8.19999 -7.6,8.19999 -4.10001,0 -7.29999,-3.09998 -7.29999,-8 0,-5.19999 3.29999,-8.19999 7.59998,-8.19999 4.40002,0 7.30001,3.20002 7.30001,8 z m -12.1,0.10001 c 0,3.39999 1.89999,6 4.6,6 2.69999,0 4.60001,-2.5 4.60001,-6 0,-2.60001 -1.30002,-6 -4.60001,-6 -3.19998,0 -4.6,3.10001 -4.6,6 z" />
    <path
       style="fill:#5d0d0b"
       inkscape:connector-curvature="0"
       id="svg_55"
       d="m 466.70001,423.5 c 0,1.60001 0,3 0.10001,4.20001 l -2.5,0 -0.20001,-2.5 -0.10001,0 c -0.69998,1.19998 -2.29999,2.9 -5.09998,2.9 -2.40002,0 -5.30001,-1.30002 -5.30001,-6.80002 l 0,-9.09998 2.80001,0 0,8.59998 c 0,2.90002 0.9,4.90002 3.4,4.90002 1.89999,0 3.19998,-1.30002 3.69998,-2.6 0.20001,-0.4 0.30002,-0.9 0.30002,-1.4 l 0,-9.5 2.79999,0 0,11.29999 0.1,0 z" />
    <path
       style="fill:#5d0d0b"
       inkscape:connector-curvature="0"
       id="svg_56"
       d="m 471.29999,417.10001 c 0,-1.79999 0,-3.4 -0.10001,-4.79999 l 2.4,0 0.1,3 0.10001,0 c 0.70001,-2.10001 2.39999,-3.4 4.20001,-3.4 0.29999,0 0.5,0 0.79999,0.1 l 0,2.70001 c -0.29999,-0.1 -0.60001,-0.1 -0.9,-0.1 -2,0 -3.30001,1.5 -3.70001,3.6 -0.1,0.4 -0.1,0.79999 -0.1,1.29999 l 0,8.30002 -2.69999,0 0,-10.70001 -0.1,0 z" />
    <path
       style="fill:#5d0d0b"
       inkscape:connector-curvature="0"
       id="svg_57"
       d="m 488.20001,427.79999 c 0.10001,-1.10001 0.10001,-2.60001 0.10001,-4 l 0,-18.79999 2.69998,0 0,9.70001 0.10001,0 c 1,-1.70001 2.70001,-2.90002 5.20001,-2.90002 3.79999,0 6.5,3.20001 6.39999,7.90002 0,5.5 -3.39999,8.29999 -6.79999,8.29999 -2.20001,0 -4,-0.89999 -5.1,-2.89999 l -0.10001,0 -0.1,2.6 -2.4,0 0,0.1 z m 2.9,-6.29999 c 0,0.39999 0.1,0.70001 0.1,1 0.5,2 2.10001,3.29999 4.20001,3.29999 2.9,0 4.59998,-2.4 4.59998,-6 C 500,416.70001 498.40002,414 495.5,414 c -1.89999,0 -3.69998,1.29999 -4.19998,3.5 -0.10001,0.29999 -0.20001,0.70001 -0.20001,1.20001 l 0,2.79999 z" />
    <path
       style="fill:#5d0d0b"
       inkscape:connector-curvature="0"
       id="svg_58"
       d="m 506.29999,417.10001 c 0,-1.79999 0,-3.4 -0.10001,-4.79999 l 2.4,0 0.1,3 0.10001,0 c 0.70001,-2.10001 2.39999,-3.4 4.20001,-3.4 0.29999,0 0.5,0 0.79999,0.1 l 0,2.70001 c -0.29999,-0.1 -0.59998,-0.1 -0.90003,-0.1 -1.99997,0 -3.29998,1.5 -3.69998,3.6 -0.1,0.4 -0.1,0.79999 -0.1,1.29999 l 0,8.30002 -2.69999,0 0,-10.70001 -0.1,0 z" />
    <path
       style="fill:#5d0d0b"
       inkscape:connector-curvature="0"
       id="svg_59"
       d="m 524.90002,427.79999 -0.20001,-2 -0.1,0 c -0.90003,1.20001 -2.5,2.29999 -4.70002,2.29999 -3.09997,0 -4.70001,-2.19999 -4.70001,-4.5 0,-3.69999 3.29999,-5.79999 9.20001,-5.79999 l 0,-0.29999 c 0,-1.30002 -0.29998,-3.60001 -3.5,-3.60001 -1.40002,0 -2.90002,0.4 -4,1.19999 l -0.59997,-1.9 c 1.29999,-0.79999 3.09997,-1.39999 5,-1.39999 4.69995,0 5.79999,3.20001 5.79999,6.29999 l 0,5.80001 c 0,1.29999 0.1,2.69999 0.29998,3.69999 l -2.5,0 0,0.20001 z m -0.40002,-8 c -3,-0.10001 -6.5,0.5 -6.5,3.5 0,1.79999 1.20001,2.70001 2.59998,2.70001 2,0 3.30004,-1.30002 3.70001,-2.60001 0.10004,-0.30001 0.20001,-0.6 0.20001,-0.89999 l 0,-2.70001 z" />
    <path
       style="fill:#5d0d0b"
       inkscape:connector-curvature="0"
       id="svg_60"
       d="m 534.70001,407.89999 c 0,1 -0.70001,1.69999 -1.79999,1.69999 -1,0 -1.70001,-0.79999 -1.70001,-1.69999 0,-1 0.70001,-1.80001 1.70001,-1.80001 1.19996,3e-5 1.79999,0.80001 1.79999,1.80001 z m -3,19.9 0,-15.5 2.79999,0 0,15.5 -2.79999,0 z" />
    <path
       style="fill:#5d0d0b"
       inkscape:connector-curvature="0"
       id="svg_61"
       d="m 539,416.39999 c 0,-1.6 0,-2.89999 -0.1,-4.20001 l 2.5,0 0.19996,2.60001 0.10003,0 c 0.79999,-1.5 2.5,-2.9 5.09998,-2.9 2.10004,0 5.40002,1.29999 5.40002,6.60001 l 0,9.29999 -2.79999,0 0,-8.9 c 0,-2.5 -0.90002,-4.6 -3.5,-4.6 -1.80004,0 -3.30004,1.29999 -3.70001,2.89999 C 542.09998,417.59998 542,418 542,418.5 l 0,9.29999 -3,0 0,-11.4 z" />
  </g>
  <path
     style="fill:#5d0d0b"
     inkscape:connector-curvature="0"
     id="svg_62"
     d="m 552.13751,54.118752 c 1.59998,-1.400002 2.79999,-3.100002 2.70001,-5.300003 -0.10003,-2.399998 -1.29998,-4.5 -2.79998,-6.399998 -1.5,-2 -3.40003,-3.799999 -5.80005,-4.600002 -5,-1.699997 -10.5,3.600002 -14.09998,6.5 -29,23.599998 -53.29999,44.099998 -80.89999,66.300001 -0.4,0.3 -1.4,0.4 -2.10001,0.1 -5.39999,-2.3 -10.5,-3.1 -15.29999,-2.5 -9.6,1.3 -16.40002,6 -21.80001,12.39999 -2.5,3 -4.79999,6 -7.19999,9.10001 0.69999,3 1.29999,6.10001 2,9.10001 1.29999,-1.10001 2.59998,-2.20002 3.9,-3.20002 6.5,-5.09999 12.89999,-10.19999 19.29999,-15.29998 1.1,1.19999 2.1,2.29998 3.20001,3.39999 -8.20001,7.39999 -17.10001,14.10001 -25,21.70001 0.19998,0.9 0.39999,1.80001 0.6,2.7 0.79999,0.39999 1.4,0.89999 2,1.5 2.9,-2.2 5.69999,-4.60001 8.69999,-6.60001 6.5,-4.5 12.89999,-9 19.39999,-13.5 1,1 1.90002,1.80001 2.80002,2.80001 -9,7.69999 -18.10001,15.19999 -27,22.79998 0.19998,-0.19999 2.19998,2.10001 2.6,2.20002 1,0.19999 1.19999,-0.30001 2.09998,-0.80001 2.30002,-1.19999 4.5,-3 6.60001,-4.40001 6.89999,-4.69999 13.89999,-9.29998 20.89999,-14 0.90002,1 1.70001,1.80001 2.60001,2.80001 -0.29999,-0.30001 -25.29999,20.40001 -27.60001,22.3 1.10001,1.7 2.5,3.10001 4.30002,4.10001 8.89999,-4.40001 18.19998,-8.20002 26.69998,-13.30001 9.10001,-5.5 12.70001,-14.69999 10,-27.6 -0.29999,-1.59999 0,-2.4 1,-3.2 15.5,-12.4 31.20001,-24.5 46.79999,-36.699997 8.10003,-6.300003 16.10003,-12.5 24.20001,-18.800003 4.20001,-3.300003 8.40002,-6.599998 12.5,-9.900002 1.40002,-1.299995 3.20001,-2.399998 4.70001,-3.699997 z" />
  <image
     sodipodi:absref="C:\Users\Brian\Documents\GitHub\brainsteambreakfast_blog\assets\images/logo.png"
     xlink:href="images/logo.png"
     height="0"
     width="0"
     y="-195.61125"
     x="-366.5625"
     id="svg_80" />
</svg>
