<svg width="612" height="450" xmlns="http://www.w3.org/2000/svg" xmlns:xlink="http://www.w3.org/1999/xlink">
 <g>
  <title>Layer 1</title>
  <path d="m463.299988,258.299988c2.799988,-0.100006 5.799988,-0.399994 8.399994,-1.399994c0.700012,-0.300018 1.399994,-0.600006 2.100006,-1c10.100006,-4.900009 15.100006,-16.199997 19.700012,-26.199997c2.099976,-9.5 3.799988,-19.200012 3.099976,-29c-1.899994,-28.700012 -11.599976,-58.200012 -29.299988,-81.200005c-5.100006,-6.600006 -10.899994,-12.700005 -17.399994,-17.900002c-11.200012,-9 -25.600006,-15.900002 -33.899994,-28c-1.200012,-1.800003 -2.400024,-3.700005 -3.5,-5.599998c-7.400024,-12.600002 -14.900024,-23.400002 -27.5,-31.300003c-11,-6.9 -23.200012,-11.799999 -35.300018,-16.099998c-22.699982,-8.1 -47.199982,-10.400001 -70.699982,-4.800001c-7.700012,1.800001 -15.5,6.4 -23.300003,7.200001c-10,1 -20,-3.700001 -30.100006,-3.1c-25.600006,1.299999 -53.899994,10.6 -73.100006,28.5c-17.199997,15.999996 -31.699997,51.799999 -20.599991,74.200001c1,2 2.099991,4.699997 0.699997,6.399994c-0.699997,0.800003 -1.699997,1.100006 -2.600006,1.5c-57.699997,19.800003 -65.099998,133.400009 1.100006,146.900009c18.600006,3.799988 37.199997,-2 55.5,2.899994c16.199997,4.399994 32,10.699982 48.600006,13.399994c9.699997,1.600006 19.299988,0.399994 28.699997,-2.399994c4.699982,-1.399994 9.399994,-3.200012 13.899994,-5.100006c1.5,-0.600006 5.399994,-3.100006 6.799988,-2.399994c1.800018,0.699982 2.300018,3.699982 3.600006,4.899994c1.600006,1.399994 3.800018,1.700012 5.800018,2.299988c5.099976,1.600006 10.199982,3.400024 15.299988,5.200012c10.899994,3.700012 21.799988,7.5 32.799988,10.799988c21.300018,6.300018 44.300018,11.300018 66.400024,7.200012c11.599976,-2.200012 23,-8.100006 31.199982,-16.700012c4.200012,-4.299988 7.600006,-9.5 9.300018,-15.399994c1.099976,-3.5 0,-10.399994 1.5,-14.5c0.599976,-4.799988 3.899994,-9.199982 10.099976,-9.199982c1.100037,0 1.900024,0 2.700012,-0.100006zm-292.599991,-200.299988c-0.099991,0 -0.300003,0.099998 -0.399994,0.099998l6.5,-2c-2,0.800003 -4,1.400002 -6.100006,1.900002z" fill="#5d0d0b" id="svg_1"/>
  <path d="m313.600006,91" fill="#f59496" id="svg_2"/>
  <path d="m480.600006,164c-11.699982,-28.5 -33.600006,-72.800003 -69.899994,-68.199997c-0.300018,-20.900002 -7.400024,-38.100002 -25,-49.700005c-21.900024,-14.599998 -45.700012,-26.199999 -72,-29.899998l-1.100006,0.199999c-1.700012,-0.199999 -3.5,-0.4 -5.200012,-0.4c-11.699982,-0.5 -23.299988,1.6 -34.199982,5.799999c-3,1.200001 -6.700012,4.900002 -4.300018,8.5c1.5,2.200001 6.800018,2.799999 9.200012,3.900002c9.100006,4.399998 17.600006,10.200001 25.5,16.5c5.100006,4 10.100006,8 15.199982,12.099998c2.600006,2.100002 5.300018,4.200001 6.900024,7.200001c-22.400024,-13.099998 -43.300018,-27.900002 -68.100006,-36.200001c-24.899994,-8.4 -53.099991,-10.099998 -77,0.900002c-15,6.899998 -27.700012,19.399998 -34.599991,34.600002c-3.700012,8.199997 -7.5,18.299995 -6.900009,27.5c0.600006,9.699997 5.900009,24.399994 0.5,33.099991c-5.699997,9.100006 -16.099998,13.900009 -24.299995,20.400009c-20.099998,15.800003 -29,44.699997 -21.199997,69.300003c7.699997,24.5 31.5,42.899994 56.799995,44c6.899994,0.299988 14.199997,-0.700012 19.5,-5.200012c5.300003,-4.399994 7.600006,-13 3.5,-18.599991c12.699997,19.999985 34.5,33.900009 57.899994,36.699997c24.500015,3 44.300003,-7.600006 64.199997,-20.299988c-11.100006,7.099976 33.400024,32.299988 37,33.5c21.100006,7 47.100006,12.599976 69.400024,9.799988c19.099976,-2.399994 33.799988,-18.700012 47.299988,-31.100006c13.600006,-12.5 30.899994,-22.899994 37.5,-41.199997c7.299988,-20.399994 1.599976,-43.199997 -6.600006,-63.199997zm-154.399994,-93.900002l0.5,-0.699997c0.200012,0.400002 0.299988,0.799995 0.5,1.199997c-0.400024,-0.099998 -0.700012,-0.299995 -1,-0.5z" fill="#f59496" id="svg_3"/>
  <g id="svg_4">
   <path d="m61.200001,345.700012c1.299999,0 2.599998,0.299988 3.799999,0.799988c1.199997,0.5 2.199997,1.200012 3.099998,2.100006c0.900002,0.899994 1.599998,2 2.099998,3.200012c0.5,1.199982 0.800003,2.5 0.800003,3.799988c0,2.399994 -0.699997,4.5 -2.199997,6.399994c1,0.600006 1.799995,1.200012 2.5,2c0.699997,0.800018 1.299995,1.600006 1.799995,2.5c0.5,0.900024 0.900002,1.800018 1.099998,2.800018c0.300003,1 0.400002,2 0.400002,3c0,1.600006 -0.299995,3.100006 -0.900002,4.600006c-0.599998,1.399994 -1.399994,2.699982 -2.5,3.799988c-1,1.100006 -2.299995,1.899994 -3.699997,2.5c-1.400002,0.600006 -2.900002,0.899994 -4.5,0.899994l-9.099998,0c-0.300003,0 -0.700001,-0.100006 -1,-0.199982c-0.300003,-0.100006 -0.600002,-0.300018 -0.800003,-0.5c-0.199997,-0.200012 -0.399998,-0.5 -0.5,-0.800018c-0.099998,-0.299988 -0.199997,-0.600006 -0.199997,-1l0,-33.299988c0,-0.399994 0.099998,-0.700012 0.199997,-1c0.100002,-0.300018 0.300003,-0.600006 0.5,-0.800018c0.200001,-0.199982 0.5,-0.399994 0.800003,-0.5c0.299999,-0.099976 0.599998,-0.199982 1,-0.199982l7.299999,0l0,-0.100006zm-4.799999,5.099976l0,9.700012l4.799999,0c0.700001,0 1.299999,-0.100006 1.899998,-0.400024c0.600002,-0.299988 1.099998,-0.599976 1.5,-1.099976c0.400002,-0.400024 0.800003,-1 1,-1.5c0.300003,-0.600006 0.400002,-1.200012 0.400002,-1.900024c0,-0.699982 -0.099998,-1.299988 -0.400002,-1.899994c-0.299995,-0.600006 -0.599998,-1.100006 -1,-1.5c-0.400002,-0.399994 -0.899998,-0.799988 -1.5,-1.100006c-0.599998,-0.299988 -1.199997,-0.399994 -1.799999,-0.399994l-4.899998,0l0,0.100006zm0,14.800018l0,13.399994l6.599998,0c0.900002,0 1.800003,-0.200012 2.599998,-0.5c0.800003,-0.399994 1.5,-0.799988 2.099998,-1.399994c0.600006,-0.600006 1.100006,-1.300018 1.400002,-2.100006c0.300003,-0.799988 0.5,-1.700012 0.5,-2.600006c0,-0.899994 -0.199997,-1.799988 -0.5,-2.600006c-0.299995,-0.799988 -0.799995,-1.5 -1.400002,-2.099976s-1.299995,-1.100006 -2.099998,-1.400024c-0.799995,-0.399994 -1.699997,-0.5 -2.599998,-0.5l-6.599998,0l0,-0.199982z" fill="#5d0d0b" id="svg_5"/>
   <path d="m82.800003,359.700012l0,0.5c1.199997,-1 2.5,-1.700012 3.899994,-2.200012c1.400002,-0.5 2.900002,-0.799988 4.400002,-0.799988c0.700005,0 1.400002,0 2.200005,0.100006c0.799995,0.100006 1.5,0.299988 2.199997,0.5c0.699997,0.199982 1.199997,0.600006 1.699997,1s0.700005,1 0.700005,1.699982c0,0.400024 -0.099998,0.700012 -0.200005,1s-0.299995,0.600006 -0.5,0.800018c-0.199997,0.199982 -0.5,0.399994 -0.799995,0.5c-0.300003,0.100006 -0.599998,0.199982 -1,0.199982c-0.300003,0 -0.599998,-0.099976 -1,-0.299988c-1,-0.399994 -2.099998,-0.600006 -3.200005,-0.600006c-1.199997,0 -2.199997,0.200012 -3.199997,0.700012c-1,0.399994 -1.900002,1 -2.599998,1.799988c-0.700005,0.800018 -1.300003,1.700012 -1.800003,2.700012c-0.400002,1 -0.699997,2.100006 -0.699997,3.299988l0,10.899994c0,0.700012 -0.200005,1.300018 -0.700005,1.800018c-0.5,0.5 -1.099998,0.699982 -1.699997,0.699982c-0.699997,0 -1.300003,-0.199982 -1.800003,-0.699982c-0.5,-0.5 -0.699997,-1.100006 -0.699997,-1.800018l0,-21.899994c0,-0.699982 0.199997,-1.299988 0.699997,-1.799988c0.5,-0.5 1.100006,-0.700012 1.800003,-0.700012c0.699997,0 1.300003,0.200012 1.699997,0.700012c0.400002,0.599976 0.600006,1.199982 0.600006,1.899994z" fill="#5d0d0b" id="svg_6"/>
   <path d="m122.199997,381.600006l0,-0.5c-1.199997,1 -2.5,1.700012 -3.899994,2.200012c-1.400002,0.5 -2.900002,0.799988 -4.400002,0.799988c-3.700005,0 -6.800003,-1.299988 -9.400002,-3.899994c-2.599998,-2.600006 -3.900002,-5.799988 -3.900002,-9.5s1.300003,-6.899994 3.900002,-9.5c2.599998,-2.600006 5.699997,-3.899994 9.400002,-3.899994c3.599998,0 6.699997,1.299988 9.400002,3.899994c2.599998,2.600006 3.899994,5.799988 3.899994,9.5l0,10.899994c0,0.700012 -0.199997,1.300018 -0.699997,1.800018c-0.5,0.5 -1.099998,0.699982 -1.699997,0.699982c-0.700005,0 -1.300003,-0.199982 -1.800003,-0.699982c-0.599998,-0.500031 -0.800003,-1.100037 -0.800003,-1.800018zm-8.299995,-19.399994c-1.200005,0 -2.300003,0.200012 -3.300003,0.700012c-1,0.399994 -1.900002,1.099976 -2.599998,1.799988s-1.300003,1.700012 -1.800003,2.700012c-0.399994,1 -0.699997,2.099976 -0.699997,3.299988c0,1.200012 0.199997,2.200012 0.699997,3.299988c0.400002,1 1,1.900024 1.800003,2.700012s1.599998,1.399994 2.599998,1.799988c1,0.400024 2.099998,0.700012 3.300003,0.700012c1.099998,0 2.199997,-0.200012 3.199997,-0.700012c1,-0.399994 1.900002,-1.099976 2.599998,-1.799988c0.700005,-0.799988 1.300003,-1.700012 1.800003,-2.700012c0.400002,-1 0.599998,-2.099976 0.599998,-3.199982c0,-1.200012 -0.199997,-2.200012 -0.599998,-3.300018c-0.400002,-1 -1,-1.899994 -1.800003,-2.699982c-0.699997,-0.800018 -1.599998,-1.399994 -2.599998,-1.800018c-1,-0.600006 -2.099998,-0.799988 -3.199997,-0.799988z" fill="#5d0d0b" id="svg_7"/>
   <path d="m137.600006,352.399994c0,0.799988 -0.300003,1.5 -0.899994,2.100006c-0.600006,0.599976 -1.300003,0.899994 -2.100006,0.899994c-0.800003,0 -1.5,-0.300018 -2.099991,-0.899994c-0.600006,-0.600006 -0.900009,-1.300018 -0.900009,-2.100006s0.300003,-1.5 0.900009,-2.100006c0.599991,-0.600006 1.299988,-0.899994 2.099991,-0.899994c0.800003,0 1.5,0.299988 2.100006,0.899994c0.599991,0.600006 0.899994,1.300018 0.899994,2.100006zm-5.400009,29.200012l0,-21.799988c0,-0.700012 0.199997,-1.300018 0.699997,-1.800018c0.5,-0.5 1.100006,-0.699982 1.700012,-0.699982s1.299988,0.199982 1.699997,0.699982c0.5,0.5 0.699997,1.100006 0.699997,1.800018l0,21.799988c0,0.700012 -0.300003,1.300018 -0.699997,1.800018c-0.5,0.5 -1.100006,0.699982 -1.699997,0.699982s-1.300003,-0.199982 -1.700012,-0.699982c-0.5,-0.500031 -0.699997,-1.100037 -0.699997,-1.800018z" fill="#5d0d0b" id="svg_8"/>
   <path d="m147.100006,359.700012c2.100006,-1.600006 4.600006,-2.5 7.400009,-2.5c1.699997,0 3.199997,0.299988 4.699997,1c1.5,0.700012 2.800003,1.5 3.899994,2.700012c1.100006,1.099976 2,2.5 2.699997,4c0.700012,1.5 1,3.199982 1,4.899994l0,11.799988c0,0.700012 -0.199997,1.300018 -0.699997,1.800018c-0.5,0.5 -1.099991,0.699982 -1.699997,0.699982c-0.699997,0 -1.300003,-0.199982 -1.800003,-0.699982c-0.5,-0.5 -0.699997,-1.100006 -0.699997,-1.800018l0,-11.799988c0,-1 -0.199997,-2 -0.600006,-2.899994c-0.399994,-0.900024 -0.899994,-1.700012 -1.599991,-2.400024c-0.699997,-0.699982 -1.5,-1.199982 -2.400009,-1.599976c-0.899994,-0.400024 -1.899994,-0.600006 -2.899994,-0.600006c-1,0 -2,0.199982 -2.899994,0.600006c-0.900009,0.399994 -1.700012,0.899994 -2.400009,1.599976c-0.699997,0.700012 -1.199997,1.5 -1.599991,2.400024c-0.400009,0.899994 -0.600006,1.899994 -0.600006,2.899994l0,11.799988c0,0.700012 -0.199997,1.300018 -0.699997,1.800018c-0.5,0.5 -1.100006,0.699982 -1.699997,0.699982c-0.700012,0 -1.300003,-0.199982 -1.800003,-0.699982c-0.5,-0.5 -0.699997,-1.100006 -0.699997,-1.800018l0,-21.799988c0,-0.700012 0.199997,-1.300018 0.699997,-1.800018c0.5,-0.5 1.099991,-0.699982 1.800003,-0.699982c0.699997,0 1.299988,0.199982 1.699997,0.699982c0.699982,0.5 0.899994,1 0.899994,1.700012z" fill="#5d0d0b" id="svg_9"/>
   <path d="m175.399994,371.299988c-1.5,-0.600006 -2.5,-1.200012 -3.100006,-1.799988l0,0c-1.199997,-1.200012 -1.800003,-2.700012 -1.800003,-4.300018c0,-1.199982 0.300003,-2.299988 1,-3.299988s1.5,-1.800018 2.5,-2.5c1,-0.700012 2.200012,-1.200012 3.5,-1.600006c1.300003,-0.399994 2.600006,-0.600006 3.900009,-0.600006c3.899994,0 7.300003,1.600006 10.099991,4.800018c0.300003,0.399994 0.5,0.899994 0.5,1.5c0,0.699982 -0.199997,1.299988 -0.699997,1.799988c-0.5,0.5 -1.099991,0.700012 -1.800003,0.700012c-0.5,0 -0.899994,-0.100006 -1.299988,-0.400024c-0.400009,-0.299988 -0.700012,-0.599976 -1,-0.899994c-1.600006,-1.600006 -3.600006,-2.399994 -5.900009,-2.399994c-2.300003,0 -4.099991,0.700012 -5.399994,2.100006c-0.300003,0.299988 -0.400009,0.600006 -0.400009,1.100006c0,0.399994 0.200012,0.799988 0.600006,0.899994l11.100006,3.699982c1.5,0.600006 2.599991,1.200012 3.099991,1.800018l0,0c1.199997,1.199982 1.800003,2.699982 1.800003,4.299988c0,1.200012 -0.300003,2.300018 -1,3.300018s-1.5,1.799988 -2.5,2.5c-1,0.699982 -2.199997,1.199982 -3.399994,1.599976c-1.300003,0.400024 -2.600006,0.600006 -3.900009,0.600006c-4,0 -7.300003,-1.600006 -10.099991,-4.799988c-0.300003,-0.5 -0.5,-1 -0.5,-1.600006c0,-0.700012 0.199997,-1.299988 0.699997,-1.799988c0.5,-0.5 1.099991,-0.700012 1.800003,-0.700012c0.5,0 1,0.200012 1.299988,0.5c0.400009,0.299988 0.700012,0.600006 1,0.899994c1.600006,1.600006 3.600006,2.399994 5.900009,2.399994c2.300003,0 4.099991,-0.699982 5.399994,-2.199982c0.199997,-0.300018 0.400009,-0.600006 0.400009,-1c0,-0.399994 -0.200012,-0.800018 -0.600006,-0.899994l-11.199997,-3.700012z" fill="#5d0d0b" id="svg_10"/>
   <path d="m197.899994,357.200012l1.099991,0l0,-9c0,-0.700012 0.200012,-1.299988 0.700012,-1.799988c0.5,-0.5 1.099991,-0.700012 1.799988,-0.700012c0.700012,0 1.300003,0.200012 1.700012,0.700012c0.5,0.5 0.699997,1.099976 0.699997,1.799988l0,9l3,0c0.699997,0 1.300003,0.200012 1.699997,0.700012c0.5,0.5 0.699997,1.099976 0.699997,1.799988c0,0.700012 -0.199997,1.299988 -0.699997,1.799988c-0.5,0.5 -1,0.700012 -1.699997,0.700012l-3,0l0,12.100006c0,3.199982 1.599991,4.799988 4.699997,4.799988c0.699997,0 1.300003,0.200012 1.699997,0.700012c0.5,0.5 0.699997,1.100006 0.699997,1.799988c0,0.700012 -0.199997,1.300018 -0.699997,1.800018c-0.5,0.5 -1,0.699982 -1.699997,0.699982c-6.399994,0 -9.699997,-3.299988 -9.699997,-9.799988l0,-12.100006l-1.100006,0c-0.699997,0 -1.199997,-0.200012 -1.699997,-0.700012c-0.5,-0.5 -0.699997,-1.099976 -0.699997,-1.799988c0,-0.700012 0.199997,-1.299988 0.699997,-1.799988c0.600006,-0.400024 1.200012,-0.700012 1.800003,-0.700012z" fill="#5d0d0b" id="svg_11"/>
   <path d="m233.300003,376.5c0.699997,0 1.300003,0.200012 1.800003,0.700012c0.5,0.5 0.699997,1.099976 0.699997,1.799988c0,0.700012 -0.199997,1.299988 -0.699997,1.799988c-2.400009,2.200012 -5.300003,3.300018 -8.600006,3.300018c-3.699997,0 -6.800003,-1.300018 -9.399994,-3.899994c-2.600006,-2.600006 -3.900009,-5.800018 -3.900009,-9.5s1.300003,-6.900024 3.900009,-9.5c2.599991,-2.600006 5.699997,-3.900024 9.399994,-3.900024c3.600006,0 6.699997,1.300018 9.399994,3.900024c1.300003,1.299988 2.300003,2.699982 2.900009,4.299988c0.599991,1.600006 1,3.299988 1,5.200012c0,0.699982 -0.199997,1.299988 -0.699997,1.799988c-0.5,0.5 -1.100006,0.700012 -1.800003,0.700012l-18.699997,0c0.299988,0.899994 0.699997,1.699982 1.199997,2.399994c0.5,0.699982 1.099991,1.399994 1.800003,1.899994c0.699997,0.5 1.5,0.899994 2.299988,1.200012c0.800003,0.299988 1.700012,0.399994 2.600006,0.399994c1,0 2,-0.200012 2.899994,-0.5s1.700012,-0.800018 2.400009,-1.399994c0.300003,-0.5 0.899994,-0.700012 1.5,-0.700012zm1,-8.399994c-0.300003,-0.899994 -0.699997,-1.699982 -1.199997,-2.399994c-0.5,-0.700012 -1.100006,-1.399994 -1.800003,-1.899994c-0.699997,-0.5 -1.5,-0.899994 -2.300003,-1.200012c-0.800003,-0.299988 -1.699997,-0.399994 -2.600006,-0.399994c-0.899994,0 -1.799988,0.100006 -2.599991,0.399994c-0.900009,0.300018 -1.600006,0.700012 -2.300003,1.200012c-0.699997,0.5 -1.300003,1.100006 -1.800003,1.899994c-0.5,0.700012 -0.899994,1.5 -1.199997,2.399994l15.800003,0z" fill="#5d0d0b" id="svg_12"/>
   <path d="m280.700012,381.600006c0,0.700012 -0.200012,1.300018 -0.700012,1.800018c-0.5,0.5 -1.099976,0.699982 -1.699982,0.699982c-0.700012,0 -1.300018,-0.199982 -1.700012,-0.699982c-0.5,-0.5 -0.699982,-1.100006 -0.699982,-1.800018l0,-13.600006c0,-0.799988 -0.100006,-1.5 -0.400024,-2.199982c-0.299988,-0.700012 -0.699982,-1.300018 -1.199982,-1.800018c-0.5,-0.5 -1.100006,-0.899994 -1.800018,-1.199982c-0.699982,-0.300018 -1.399994,-0.5 -2.199982,-0.5c-0.800018,0 -1.5,0.199982 -2.200012,0.5c-0.699982,0.299988 -1.299988,0.699982 -1.799988,1.199982c-0.5,0.5 -0.899994,1.100006 -1.200012,1.800018c-0.299988,0.699982 -0.399994,1.399994 -0.399994,2.199982l0,13.600006c0,0.700012 -0.200012,1.300018 -0.700012,1.800018c-0.5,0.5 -1.099976,0.699982 -1.699982,0.699982c-0.700012,0 -1.300018,-0.199982 -1.800018,-0.699982c-0.5,-0.5 -0.699982,-1.100006 -0.699982,-1.800018l0,-13.600006c0,-0.799988 -0.200012,-1.5 -0.399994,-2.199982c-0.300018,-0.700012 -0.700012,-1.300018 -1.200012,-1.800018c-0.5,-0.5 -1.100006,-0.899994 -1.799988,-1.199982c-0.700012,-0.300018 -1.400009,-0.5 -2.200012,-0.5s-1.5,0.100006 -2.199997,0.399994c-0.700012,0.299988 -1.300003,0.700012 -1.800003,1.200012c-0.5,0.5 -0.900009,1.099976 -1.199997,1.799988c-0.300003,0.700012 -0.400009,1.399994 -0.400009,2.200012l0,13.599976c0,0.700012 -0.199997,1.300018 -0.699997,1.800018c-0.5,0.5 -1.100006,0.699982 -1.699997,0.699982c-0.699997,0 -1.300003,-0.199982 -1.800003,-0.699982c-0.5,-0.5 -0.699997,-1.100006 -0.699997,-1.800018l0,-21.799988c0,-0.700012 0.199997,-1.299988 0.699997,-1.799988c0.5,-0.5 1.100006,-0.700012 1.699997,-0.700012c0.600006,0 1,0.200012 1.5,0.5c0.400009,0.299988 0.699997,0.700012 0.900009,1.200012c1.699997,-1.100006 3.599991,-1.700012 5.699997,-1.700012c1.599991,0 3.100006,0.299988 4.399994,0.899994c1.399994,0.600006 2.600006,1.600006 3.600006,2.899994c2.200012,-2.5 4.899994,-3.799988 8.100006,-3.799988c1.399994,0 2.799988,0.299988 4.100006,0.899994s2.399994,1.300018 3.399994,2.300018c1,1 1.699982,2.099976 2.299988,3.399994c0.600006,1.299988 0.800018,2.699982 0.800018,4.100006l0,13.699982l-0.200012,0z" fill="#5d0d0b" id="svg_13"/>
   <path d="m311.799988,335.700012c1.700012,0 3.299988,0.299988 4.799988,1c1.5,0.700012 2.800018,1.600006 3.900024,2.700012c1.099976,1.099976 2,2.5 2.699982,4c0.600006,1.5 1,3.099976 1,4.899994c0,3.100006 -0.899994,5.699982 -2.799988,8c1.199982,0.699982 2.299988,1.600006 3.199982,2.5c0.900024,0.899994 1.700012,2 2.300018,3.100006c0.600006,1.099976 1.100006,2.299988 1.399994,3.5c0.299988,1.199982 0.5,2.5 0.5,3.799988c0,2 -0.399994,4 -1.200012,5.799988s-1.799988,3.400024 -3.099976,4.700012c-1.300018,1.399994 -2.900024,2.399994 -4.600006,3.200012c-1.800018,0.799988 -3.700012,1.199982 -5.700012,1.199982l-11.5,0c-0.399994,0 -0.799988,-0.100006 -1.199982,-0.299988c-0.400024,-0.200012 -0.700012,-0.399994 -1,-0.700012c-0.300018,-0.299988 -0.5,-0.600006 -0.700012,-1s-0.299988,-0.799988 -0.299988,-1.299988l0,-42c0,-0.399994 0.099976,-0.899994 0.299988,-1.300018c0.200012,-0.399994 0.399994,-0.699982 0.700012,-1c0.299988,-0.299988 0.599976,-0.5 1,-0.699982c0.399994,-0.200012 0.799988,-0.300018 1.199982,-0.300018l9.100006,0l0,0.200012zm-6,6.399994l0,12.200012l6,0c0.799988,0 1.600006,-0.200012 2.299988,-0.5c0.700012,-0.300018 1.400024,-0.800018 1.900024,-1.300018c0.5,-0.599976 1,-1.199982 1.299988,-2c0.299988,-0.699982 0.5,-1.5 0.5,-2.399994c0,-0.799988 -0.200012,-1.600006 -0.5,-2.299988c-0.299988,-0.700012 -0.799988,-1.399994 -1.299988,-2c-0.600006,-0.600006 -1.200012,-1 -1.900024,-1.300018c-0.699982,-0.299988 -1.5,-0.5 -2.299988,-0.5l-6,0l0,0.100006zm0,18.699982l0,16.899994l8.299988,0c1.200012,0 2.200012,-0.199982 3.200012,-0.699982s1.899994,-1 2.600006,-1.800018c0.699982,-0.799988 1.299988,-1.699982 1.799988,-2.699982c0.399994,-1 0.700012,-2.100006 0.700012,-3.300018c0,-1.100006 -0.200012,-2.199982 -0.700012,-3.299988c-0.399994,-1 -1,-1.899994 -1.799988,-2.700012c-0.800018,-0.799988 -1.600006,-1.399994 -2.700012,-1.799988s-2.100006,-0.700012 -3.199982,-0.700012l-8.200012,0l0,0.100006z" fill="#1db7c9" id="svg_14"/>
   <path d="m339.100006,353.399994l0,0.600006c1.5,-1.200012 3.100006,-2.100006 4.899994,-2.800018c1.700012,-0.600006 3.600006,-1 5.600006,-1c0.899994,0 1.800018,0.100006 2.800018,0.200012c1,0.100006 1.899994,0.299988 2.799988,0.600006c0.799988,0.299988 1.5,0.699982 2.100006,1.299988c0.600006,0.5 0.799988,1.299988 0.799988,2.100006c0,0.399994 -0.100006,0.899994 -0.299988,1.199982c-0.200012,0.400024 -0.399994,0.700012 -0.700012,1c-0.299988,0.300018 -0.600006,0.5 -1,0.700012c-0.399994,0.200012 -0.799988,0.200012 -1.199982,0.200012c-0.400024,0 -0.800018,-0.100006 -1.300018,-0.300018c-1.299988,-0.5 -2.600006,-0.799988 -4.100006,-0.799988c-1.5,0 -2.799988,0.299988 -4.099976,0.799988c-1.300018,0.600006 -2.400024,1.300018 -3.300018,2.300018c-0.899994,1 -1.699982,2.099976 -2.199982,3.399994c-0.5,1.299988 -0.800018,2.699982 -0.800018,4.100006l0,13.799988c0,0.899994 -0.299988,1.600006 -0.899994,2.200012c-0.600006,0.599976 -1.299988,0.899994 -2.200012,0.899994c-0.899994,0 -1.599976,-0.300018 -2.199982,-0.899994c-0.600006,-0.600006 -0.899994,-1.400024 -0.899994,-2.200012l0,-27.600006c0,-0.899994 0.299988,-1.600006 0.899994,-2.199982c0.600006,-0.600006 1.299988,-0.900024 2.199982,-0.900024c0.900024,0 1.600006,0.300018 2.200012,0.900024c0.599976,0.700012 0.899994,1.5 0.899994,2.399994z" fill="#1db7c9" id="svg_15"/>
   <path d="m387,374.5c0.899994,0 1.600006,0.299988 2.200012,0.899994c0.599976,0.600006 0.899994,1.300018 0.899994,2.300018c0,0.899994 -0.300018,1.599976 -0.899994,2.299988c-3.100006,2.700012 -6.700012,4.100006 -10.900024,4.100006c-4.599976,0 -8.5,-1.700012 -11.799988,-5c-3.299988,-3.300018 -4.899994,-7.300018 -4.899994,-12c0,-4.700012 1.600006,-8.700012 4.899994,-12c3.299988,-3.300018 7.200012,-5 11.799988,-5c4.600006,0 8.5,1.699982 11.800018,5c1.600006,1.600006 2.799988,3.5 3.699982,5.5c0.800018,2 1.200012,4.199982 1.200012,6.5c0,0.899994 -0.299988,1.699982 -0.899994,2.299988c-0.600006,0.600006 -1.300018,0.899994 -2.200012,0.899994l-23.600006,0c0.300018,1.100006 0.800018,2.100006 1.5,3c0.700012,0.900024 1.400024,1.700012 2.300018,2.400024c0.899994,0.699982 1.899994,1.199982 2.899994,1.5c1.100006,0.399994 2.200012,0.5 3.299988,0.5c1.300018,0 2.5,-0.200012 3.600006,-0.600006c1.100006,-0.399994 2.100006,-1 3,-1.800018c0.600006,-0.5 1.300018,-0.699982 2.100006,-0.799988zm1.299988,-10.5c-0.299988,-1.100006 -0.799988,-2.100006 -1.5,-3c-0.700012,-0.899994 -1.399994,-1.700012 -2.299988,-2.399994c-0.900024,-0.700012 -1.900024,-1.200012 -2.900024,-1.5c-1.099976,-0.399994 -2.199982,-0.5 -3.299988,-0.5s-2.200012,0.199982 -3.299988,0.5c-1.100006,0.399994 -2.100006,0.899994 -2.900024,1.5c-0.899994,0.699982 -1.699982,1.399994 -2.299988,2.399994c-0.700012,0.899994 -1.100006,1.899994 -1.5,3l20,0z" fill="#1db7c9" id="svg_16"/>
   <path d="m426.899994,380.899994l0,-0.600006c-1.5,1.200012 -3.100006,2.100006 -4.899994,2.799988c-1.700012,0.600006 -3.600006,1 -5.600006,1c-4.600006,0 -8.5,-1.699982 -11.800018,-5c-3.299988,-3.299988 -4.899994,-7.299988 -4.899994,-12c0,-4.699982 1.600006,-8.699982 4.899994,-12c3.300018,-3.299988 7.200012,-5 11.800018,-5c4.600006,0 8.5,1.700012 11.799988,5c3.300018,3.300018 4.899994,7.300018 4.899994,12l0,13.800018c0,0.899994 -0.299988,1.600006 -0.899994,2.199982c-0.600006,0.600006 -1.299988,0.900024 -2.199982,0.900024c-0.900024,0 -1.600006,-0.300018 -2.200012,-0.900024c-0.599976,-0.599976 -0.899994,-1.299988 -0.899994,-2.199982zm-10.5,-24.399994c-1.5,0 -2.800018,0.299988 -4.100006,0.799988c-1.299988,0.600006 -2.399994,1.300018 -3.299988,2.300018c-0.900024,1 -1.700012,2.100006 -2.200012,3.399994c-0.5,1.299988 -0.799988,2.700012 -0.799988,4.100006s0.299988,2.799988 0.799988,4.100006c0.5,1.299988 1.299988,2.399994 2.200012,3.399994c0.899994,1 2,1.699982 3.299988,2.299988c1.299988,0.600006 2.600006,0.800018 4.100006,0.800018c1.399994,0 2.799988,-0.300018 4.100006,-0.800018c1.299988,-0.600006 2.399994,-1.299988 3.299988,-2.299988c0.899994,-1 1.700012,-2.100006 2.200012,-3.399994c0.5,-1.300018 0.799988,-2.600006 0.799988,-4.100006s-0.299988,-2.800018 -0.799988,-4.100006c-0.5,-1.299988 -1.300018,-2.399994 -2.200012,-3.399994s-2.100006,-1.700012 -3.299988,-2.300018c-1.299988,-0.5 -2.600006,-0.799988 -4.100006,-0.799988z" fill="#1db7c9" id="svg_17"/>
   <path d="m437.799988,380.899994l0,-42c0,-0.899994 0.299988,-1.600006 0.899994,-2.300018c0.600006,-0.599976 1.300018,-0.899994 2.200012,-0.899994c0.899994,0 1.600006,0.300018 2.199982,0.899994c0.600006,0.600006 0.900024,1.400024 0.900024,2.300018l0,23.600006l17.799988,-11.800018c0.5,-0.299988 1.100006,-0.5 1.700012,-0.5c0.399994,0 0.799988,0.100006 1.199982,0.200012c0.399994,0.199982 0.700012,0.399994 1,0.699982c0.300018,0.300018 0.5,0.600006 0.700012,1c0.199982,0.400024 0.299988,0.800018 0.299988,1.200012c0,1.100006 -0.399994,2 -1.199982,2.5l-12.5,8.200012l12.799988,14.599976c0.600006,0.600006 0.899994,1.400024 0.899994,2.200012c0,0.399994 -0.100006,0.799988 -0.299988,1.200012c-0.200012,0.399994 -0.399994,0.699982 -0.700012,1c-0.299988,0.299988 -0.600006,0.5 -1,0.699982c-0.399994,0.200012 -0.799988,0.200012 -1.199982,0.200012c-0.800018,0 -1.5,-0.300018 -2.100006,-0.800018l-13.800018,-15.699982l-3.599976,2.600006l0,10.899994c0,0.899994 -0.299988,1.600006 -0.899994,2.200012c-0.600006,0.600006 -1.300018,0.899994 -2.200012,0.899994c-0.899994,0 -1.600006,-0.299988 -2.199982,-0.899994c-0.600006,-0.600006 -0.900024,-1.300018 -0.900024,-2.200012z" fill="#1db7c9" id="svg_18"/>
   <path d="m489.700012,342c-5.5,0 -8.200012,2.799988 -8.200012,8.299988l0,1.600006l6,0c0.900024,0 1.600006,0.300018 2.200012,0.899994c0.600006,0.600006 0.899994,1.400024 0.899994,2.200012c0,0.899994 -0.299988,1.600006 -0.899994,2.299988c-0.600006,0.600006 -1.299988,0.900024 -2.200012,0.900024l-6,0l0,22.699982c0,0.399994 -0.099976,0.800018 -0.199982,1.200012c-0.200012,0.399994 -0.399994,0.699982 -0.700012,1c-0.299988,0.299988 -0.600006,0.5 -1,0.699982c-0.399994,0.200012 -0.799988,0.200012 -1.199982,0.200012c-0.400024,0 -0.800018,-0.100006 -1.200012,-0.200012c-0.399994,-0.199982 -0.700012,-0.399994 -1,-0.699982c-0.299988,-0.300018 -0.5,-0.600006 -0.700012,-1c-0.199982,-0.399994 -0.199982,-0.800018 -0.199982,-1.200012l0,-22.699982l-1.399994,0c-0.900024,0 -1.600006,-0.300018 -2.200012,-0.900024c-0.600006,-0.599976 -0.899994,-1.399994 -0.899994,-2.299988c0,-0.899994 0.299988,-1.700012 0.899994,-2.299988c0.600006,-0.600006 1.299988,-0.900024 2.200012,-0.900024l1.399994,0l0,-1.599976c0,-9.800018 4.799988,-14.600006 14.399994,-14.600006c0.899994,0 1.600006,0.299988 2.200012,0.899994c0.599976,0.600006 0.899994,1.399994 0.899994,2.200012c0,0.899994 -0.300018,1.599976 -0.899994,2.299988c-0.600037,0.700012 -1.300018,1 -2.200012,1z" fill="#1db7c9" id="svg_19"/>
   <path d="m522.200012,380.899994l0,-0.600006c-1.5,1.200012 -3.099976,2.100006 -4.900024,2.799988c-1.699951,0.600006 -3.599976,1 -5.599976,1c-4.600006,0 -8.5,-1.699982 -11.799988,-5c-3.300018,-3.299988 -4.900024,-7.299988 -4.900024,-12c0,-4.699982 1.600006,-8.699982 4.900024,-12c3.299988,-3.299988 7.199982,-5 11.799988,-5c4.599976,0 8.5,1.700012 11.799988,5c3.299988,3.300018 4.900024,7.300018 4.900024,12l0,13.800018c0,0.899994 -0.299988,1.600006 -0.900024,2.199982c-0.599976,0.600006 -1.299988,0.900024 -2.200012,0.900024c-0.899963,0 -1.599976,-0.300018 -2.199951,-0.900024c-0.600037,-0.599976 -0.900024,-1.299988 -0.900024,-2.199982zm-10.400024,-24.399994c-1.5,0 -2.799988,0.299988 -4.100006,0.799988c-1.299988,0.600006 -2.399994,1.300018 -3.299988,2.300018c-0.899994,1 -1.700012,2.100006 -2.200012,3.399994c-0.5,1.299988 -0.799988,2.700012 -0.799988,4.100006s0.299988,2.799988 0.799988,4.100006c0.5,1.299988 1.300018,2.399994 2.200012,3.399994c0.899994,1 2,1.699982 3.299988,2.299988c1.300018,0.600006 2.600006,0.800018 4.100006,0.800018c1.400024,0 2.799988,-0.300018 4.099976,-0.800018c1.300049,-0.600006 2.400024,-1.299988 3.300049,-2.299988c0.899963,-1 1.699951,-2.100006 2.199951,-3.399994c0.5,-1.300018 0.800049,-2.600006 0.800049,-4.100006s-0.300049,-2.800018 -0.800049,-4.100006c-0.5,-1.299988 -1.299988,-2.399994 -2.199951,-3.399994s-2.100037,-1.700012 -3.300049,-2.300018c-1.299988,-0.5 -2.699951,-0.799988 -4.099976,-0.799988z" fill="#1db7c9" id="svg_20"/>
   <path d="m539.299988,368c-1.900024,-0.700012 -3.200012,-1.5 -3.900024,-2.200012l0,0c-1.5,-1.599976 -2.299988,-3.399994 -2.299988,-5.5c0,-1.5 0.400024,-2.899994 1.200012,-4.199982c0.799988,-1.200012 1.900024,-2.300018 3.099976,-3.200012c1.300049,-0.899994 2.700012,-1.5 4.400024,-2c1.599976,-0.5 3.200012,-0.699982 4.900024,-0.699982c5,0 9.199951,2 12.799988,6.099976c0.399963,0.5 0.599976,1.200012 0.599976,1.900024c0,0.899994 -0.299988,1.699982 -0.899963,2.299988c-0.600037,0.600006 -1.300049,0.899994 -2.200012,0.899994c-0.600037,0 -1.200012,-0.199982 -1.600037,-0.5c-0.399963,-0.399994 -0.899963,-0.799988 -1.299988,-1.199982c-2,-2.100006 -4.5,-3.100006 -7.399963,-3.100006c-2.900024,0 -5.100037,0.899994 -6.900024,2.699982c-0.299988,0.300018 -0.5,0.800018 -0.5,1.300018c0,0.600006 0.299988,0.899994 0.799988,1.100006l13.900024,4.699982c1.899963,0.800018 3.299988,1.5 3.899963,2.200012l0,0c1.5,1.600006 2.300049,3.399994 2.300049,5.5c0,1.600006 -0.400024,2.899994 -1.200012,4.199982c-0.799988,1.200012 -1.900024,2.300018 -3.100037,3.200012c-1.299988,0.899994 -2.699951,1.5 -4.299988,2c-1.599976,0.5 -3.200012,0.700012 -4.899963,0.700012c-5,0 -9.300049,-2 -12.800049,-6c-0.399963,-0.600006 -0.699951,-1.200012 -0.699951,-2c0,-0.900024 0.299988,-1.700012 0.899963,-2.300018c0.600037,-0.600006 1.299988,-0.899994 2.200012,-0.899994c0.700012,0 1.200012,0.200012 1.700012,0.600006c0.5,0.399994 0.899963,0.799988 1.299988,1.100006c2,2.099976 4.5,3.099976 7.400024,3.099976c2.799988,0 5.099976,-0.899994 6.899963,-2.699982c0.299988,-0.300018 0.400024,-0.800018 0.400024,-1.200012c0,-0.600006 -0.299988,-1 -0.799988,-1.199982l-13.900024,-4.700012z" fill="#1db7c9" id="svg_21"/>
   <path d="m567.700012,350.200012l1.400024,0l0,-11.399994c0,-0.899994 0.299988,-1.600006 0.899963,-2.200012c0.600037,-0.600006 1.299988,-0.899994 2.200012,-0.899994c0.900024,0 1.599976,0.299988 2.200012,0.899994c0.599976,0.600006 0.899963,1.399994 0.899963,2.200012l0,11.399994l3.700012,0c0.900024,0 1.600037,0.299988 2.200012,0.899994c0.599976,0.600006 0.900024,1.399994 0.900024,2.200012c0,0.899994 -0.300049,1.600006 -0.900024,2.299988c-0.599976,0.600006 -1.299988,0.899994 -2.200012,0.899994l-3.700012,0l0,15.200012c0,4 2,6 6,6c0.900024,0 1.600037,0.299988 2.200012,0.899994c0.600037,0.600006 0.900024,1.399994 0.900024,2.200012c0,0.899994 -0.299988,1.600006 -0.900024,2.299988c-0.599976,0.600006 -1.299988,0.899994 -2.200012,0.899994c-8.099976,0 -12.199951,-4.099976 -12.199951,-12.299988l0,-15.200012l-1.400024,0c-0.799988,0 -1.599976,-0.299988 -2.200012,-0.899994c-0.599976,-0.600006 -0.899963,-1.399994 -0.899963,-2.299988c0,-0.899994 0.299988,-1.600006 0.899963,-2.200012c0.700012,-0.600006 1.400024,-0.899994 2.200012,-0.899994z" fill="#1db7c9" id="svg_22"/>
  </g>
  <path d="m212.699997,323.899994c-1.599991,-2 -3.599991,-3.800018 -5.399994,-5.200012c-7.100006,-5.5 -15.600006,-9 -24.400009,-10c-13.799988,-1.5 -24.199997,3.800018 -36,10c-16,8.300018 -35.899994,14.100006 -53.499992,8.300018c-14.599998,-4.800018 -25,-16.900024 -24.599998,-32.799988c0.299995,-10.600037 6.099998,-20.600037 14.799995,-26.300018c10.099998,-6.5 21.099998,-5.5 31.300003,0c0.299995,-0.100006 0.599998,-0.199982 0.900002,-0.299988c-3.600006,-6 -6.800003,-12.200012 -9.800003,-18.600006c-0.300003,-0.300003 -0.699997,-0.5 -1,-0.800003c-5.800003,-5.399994 -8.5,-14.099991 -11.300003,-21.399994c-1.099998,-3 -1.899994,-5.800003 -2.399994,-8.699997c-0.5,0.099991 -1,0.099991 -1.600006,0.099991c-0.099998,0 -0.299995,0 -0.399994,0c-1.400002,12.900009 -9.400002,24.300003 -16.400002,35.300003c-8.200005,12.899994 -15.5,27 -18.200001,42.299988c-6.700001,38 41.700001,52.5 70.099987,44.799988c2.800003,-0.799988 5.600006,-1.699982 8.300003,-2.799988c8.199997,-3.200012 15.899994,-7.600006 23.5,-12c11.199997,-6.5 25.300003,-5.600006 37,-1c5.899994,2.299988 11.399994,5.5 16.199997,9.600006c2.900009,2.5 4.900009,4.799988 6,-0.800018c0.700012,-3.599976 -0.999985,-7.099976 -3.099991,-9.699982z" fill="#5d0d0b" id="svg_23"/>
  <path d="m226.699997,347.700012c-5.099991,3.200012 -12.399994,1.100006 -16.099991,-3.700012c-3.700012,-4.799988 -4.300003,-11.599976 -2.800003,-17.5c0.5,-2 1.300003,-4 2.800003,-5.5c1.399994,-1.299988 3.199997,-2 5,-2.599976c8.799988,-2.900024 18.199997,-4.900024 27.5,-4.300018c1.399994,0.100006 3.799988,-0.100006 4.599991,0.800018c1.100006,1.299988 0.900009,6.399994 1,8.099976c0.800003,9 2.100006,16 -6,21.800018c-11.300003,8 -31.699997,8.299988 -34.800003,-8.600006c-1.299988,-7 2,-14.600006 8,-18.200012" fill="#5d0d0b" id="svg_24"/>
  <path d="m260.700012,336.5c-0.5,0.299988 -1,0.200012 -1.5,0.200012c-5.300003,-0.600006 -10.600006,-1.100006 -15.900009,-1.700012c-0.599991,-4.100006 -1.199997,-8.100006 -1.799988,-12.200012c6,-1.199982 12.299988,-1.099976 18.300003,0.300018c0.5,3.5 1.100006,7.100006 1.600006,10.600006c0.199982,1.099976 0.199982,2.299988 -0.700012,2.799988z" fill="#1db7c9" id="svg_25"/>
  <path d="m246.300003,343.5c-0.5,0.299988 -1,0.200012 -1.5,0.200012c-5.300003,-0.600006 -10.600006,-1.100006 -15.900009,-1.700012c-0.599991,-4.100006 -1.199997,-8.100006 -1.799988,-12.200012c6,-1.199982 12.299988,-1.099976 18.299988,0.300018c0.5,3.5 1.100006,7.100006 1.600006,10.600006c0.100006,1 0.199997,2.299988 -0.699997,2.799988z" fill="#1db7c9" id="svg_26"/>
  <path d="m143.699997,115.800003c-4.599991,-9.900002 -1.800003,-2.700005 -2,-2.700005c-0.399994,0 -9.099991,10.300003 -9.099991,9.900002c0.299988,3.199997 -0.700012,6.600006 -3,8.899994c-1.900009,1.900009 -4.300003,2.900009 -6.700005,3c-1,2 -2.200005,3.900009 -3.700005,5.5c12.800003,-2.299988 31.800003,-3.5 43.699997,2.900009" fill="#5d0d0b" id="svg_27"/>
  <path d="m190,257.399994c4,3.100006 8.899994,6 9.899994,11c-7.5,-0.5 -14.899994,-1 -22.399994,-1.5c-1.699997,-9.700012 -2.100006,-19.600006 -1.300003,-29.5c2.5,7.800003 7.300003,14.900009 13.800003,20z" fill="#5d0d0b" id="svg_28"/>
  <path d="m468.399994,233.600006c-2.800018,-0.399994 -5.700012,-0.899994 -8.300018,-2.099991c-6.5,-3.200012 -8.5,-11.900009 -12,-17.800003c-6.899994,-11.300003 -16.799988,-18.600006 -24.899994,-28.400009c1,7.700012 6.800018,14.600006 10.300018,21.300003c4.399994,8.5 8.699982,16.900009 11.299988,26.199997c2.700012,9.5 3.600006,19.700012 1.600006,29.400009c-1.100006,5 -3,9.899994 -5.800018,14.299988c-1.399994,2.200012 -3,4.300018 -4.899994,6.200012c-1.699982,1.799988 -4.100006,3.100006 -5.299988,5.299988c5.100006,-1.699982 10.899994,-3.899994 15.199982,-7.299988c3.900024,-3.100006 3.800018,-6.200012 4.700012,-10.700012c0.799988,-4.299988 4.700012,-7 9,-8.799988c3.399994,-1.5 7,-2.399994 9.700012,-3.200012c0.799988,-0.199982 1.699982,-0.5 2.299988,-1.099976c1.600006,-1.700012 0.299988,-4.300018 1.200012,-6.200012c0.599976,-1.300003 2.5,-2.800003 3.399994,-4.100006c2.399994,-3.5 4.299988,-7.399994 7.899994,-9.899994c0.899994,-0.600006 2,-1.300003 1.899994,-2.300003c-5.799988,0.099991 -11.599976,-0.100006 -17.299988,-0.800003z" fill="#5d0d0b" id="svg_29"/>
  <path d="m311.700012,46.5c0.399994,3.5 3.299988,6.599998 6.799988,7c4.300018,-7.900002 7.5,-16.400002 9.300018,-25.200001" fill="none" id="svg_30"/>
  <g id="svg_31">
   <path d="m75,406.399994c1.300003,-0.200012 3.099998,-0.399994 5.300003,-0.399994c2.699997,0 4.699997,0.599976 6,1.799988c1.199997,1 1.899994,2.600006 1.899994,4.5c0,2 -0.599998,3.5 -1.599998,4.600006c-1.5,1.600006 -3.799995,2.399994 -6.5,2.399994c-0.799995,0 -1.599998,0 -2.199997,-0.200012l0,8.700012l-2.900002,0l0,-21.399994zm2.800003,10.399994c0.599998,0.200012 1.399994,0.200012 2.299995,0.200012c3.300003,0 5.300003,-1.600006 5.300003,-4.600006c0,-2.899994 -2,-4.200012 -5,-4.200012c-1.200005,0 -2.099998,0.100006 -2.599998,0.200012l0,8.399994z" fill="#5d0d0b" id="svg_32"/>
   <path d="m91.199997,417.100006c0,-1.799988 0,-3.399994 -0.099998,-4.799988l2.400002,0l0.099998,3l0.099998,0c0.700005,-2.100006 2.400002,-3.399994 4.200005,-3.399994c0.299995,0 0.5,0 0.799995,0.099976l0,2.700012c-0.299995,-0.100006 -0.599998,-0.100006 -0.899994,-0.100006c-2,0 -3.300003,1.5 -3.700005,3.600006c-0.099998,0.399994 -0.099998,0.799988 -0.099998,1.299988l0,8.300018l-2.699997,0l0,-10.700012l-0.100006,0z" fill="#5d0d0b" id="svg_33"/>
   <path d="m115.099998,419.899994c0,5.699982 -3.900002,8.199982 -7.599998,8.199982c-4.099998,0 -7.300003,-3.099976 -7.300003,-8c0,-5.199982 3.300003,-8.199982 7.600006,-8.199982c4.299995,0 7.299995,3.200012 7.299995,8zm-12.199997,0.100006c0,3.399994 1.900002,6 4.599998,6c2.699997,0 4.599998,-2.5 4.599998,-6c0,-2.600006 -1.299995,-6 -4.599998,-6c-3.099998,0 -4.599998,3.100006 -4.599998,6z" fill="#5d0d0b" id="svg_34"/>
   <path d="m131.699997,412.200012c-0.099991,1.100006 -0.099991,2.399994 -0.099991,4.299988l0,9c0,3.600006 -0.700012,5.700012 -2.200012,7.100006c-1.499992,1.399994 -3.599991,1.899994 -5.599991,1.899994c-1.800003,0 -3.900002,-0.399994 -5.100006,-1.299988l0.700005,-2.100006c1,0.600006 2.599998,1.200012 4.5,1.200012c2.799995,0 4.900002,-1.5 4.900002,-5.399994l0,-1.700012l-0.100006,0c-0.899994,1.399994 -2.5,2.600006 -4.899994,2.600006c-3.800003,0 -6.5,-3.300018 -6.5,-7.600006c0,-5.299988 3.399994,-8.200012 6.899994,-8.200012c2.700005,0 4.100006,1.400024 4.800003,2.700012l0.100006,0l0.099991,-2.299988l2.5,0l0,-0.200012zm-2.800003,6.199982c0,-0.5 0,-0.899994 -0.199997,-1.300018c-0.5,-1.599976 -1.900009,-3 -3.900009,-3c-2.699997,0 -4.5,2.300018 -4.5,5.900024c0,3 1.5,5.599976 4.5,5.599976c1.700005,0 3.300003,-1.099976 3.900009,-2.899994c0.199997,-0.5 0.199997,-1 0.199997,-1.5l0,-2.799988z" fill="#5d0d0b" id="svg_35"/>
   <path d="m136,417.100006c0,-1.799988 0,-3.399994 -0.100006,-4.799988l2.400009,0l0.099991,3l0.100006,0c0.699997,-2.100006 2.399994,-3.399994 4.199997,-3.399994c0.300003,0 0.5,0 0.800003,0.099976l0,2.700012c-0.300003,-0.100006 -0.600006,-0.100006 -0.899994,-0.100006c-2,0 -3.300003,1.5 -3.700012,3.600006c-0.099991,0.399994 -0.099991,0.799988 -0.099991,1.299988l0,8.300018l-2.800003,0l0,-10.700012z" fill="#5d0d0b" id="svg_36"/>
   <path d="m154.600006,427.799988l-0.199997,-2l-0.100006,0c-0.899994,1.200012 -2.5,2.299988 -4.699997,2.299988c-3.099991,0 -4.699997,-2.199982 -4.699997,-4.5c0,-3.699982 3.300003,-5.799988 9.199997,-5.799988l0,-0.299988c0,-1.300018 -0.300003,-3.600006 -3.5,-3.600006c-1.399994,0 -2.899994,0.399994 -4,1.199982l-0.599991,-1.899994c1.299988,-0.799988 3.099991,-1.399994 5,-1.399994c4.699997,0 5.799988,3.200012 5.799988,6.299988l0,5.800018c0,1.299988 0.100006,2.699982 0.300003,3.699982l-2.5,0l0,0.200012zm-0.400009,-8c-3,-0.100006 -6.5,0.5 -6.5,3.5c0,1.799988 1.199997,2.700012 2.600006,2.700012c2,0 3.300003,-1.300018 3.699997,-2.600006c0.100006,-0.300018 0.199997,-0.600006 0.199997,-0.899994l0,-2.700012z" fill="#5d0d0b" id="svg_37"/>
   <path d="m161.399994,416.399994c0,-1.600006 0,-2.899994 -0.100006,-4.200012l2.400009,0l0.099991,2.5l0.100006,0c0.899994,-1.5 2.300003,-2.899994 4.800003,-2.899994c2.099991,0 3.699997,1.299988 4.299988,3.100006l0.100006,0c0.5,-0.899994 1.100006,-1.5 1.699997,-2c0.900009,-0.700012 1.900009,-1.100006 3.400009,-1.100006c2,0 5,1.299988 5,6.700012l0,9.099976l-2.700012,0l0,-8.599976c0,-3 -1.099991,-4.799988 -3.299988,-4.799988c-1.600006,0 -2.800003,1.199982 -3.300003,2.599976c-0.100006,0.400024 -0.199997,0.900024 -0.199997,1.400024l0,9.599976l-2.699997,0l0,-9.299988c0,-2.5 -1.100006,-4.299988 -3.199997,-4.299988c-1.699997,0 -3,1.399994 -3.400009,2.799988c-0.199997,0.399994 -0.199997,0.899994 -0.199997,1.399994l0,9.399994l-2.699997,0l0,-11.399994l-0.100006,0z" fill="#5d0d0b" id="svg_38"/>
   <path d="m187.699997,416.399994c0,-1.600006 0,-2.899994 -0.099991,-4.200012l2.399994,0l0.100006,2.5l0.099991,0c0.900009,-1.5 2.300003,-2.899994 4.800003,-2.899994c2.100006,0 3.699997,1.299988 4.300003,3.100006l0.099991,0c0.5,-0.899994 1.100006,-1.5 1.700012,-2c0.899994,-0.700012 1.899994,-1.100006 3.399994,-1.100006c2,0 5,1.299988 5,6.700012l0,9.099976l-2.699997,0l0,-8.599976c0,-3 -1.100006,-4.799988 -3.300003,-4.799988c-1.600006,0 -2.800003,1.199982 -3.300003,2.599976c-0.099991,0.400024 -0.199997,0.900024 -0.199997,1.400024l0,9.599976l-2.699997,0l0,-9.299988c0,-2.5 -1.100006,-4.299988 -3.199997,-4.299988c-1.700012,0 -3,1.399994 -3.400009,2.799988c-0.199997,0.399994 -0.199997,0.899994 -0.199997,1.399994l0,9.399994l-2.699997,0l0,-11.399994l-0.100006,0z" fill="#5d0d0b" id="svg_39"/>
   <path d="m217.100006,407.899994c0,1 -0.699997,1.699982 -1.800003,1.699982c-1,0 -1.699997,-0.799988 -1.699997,-1.699982c0,-1 0.699997,-1.800018 1.699997,-1.800018c1.199997,0.000031 1.800003,0.800018 1.800003,1.800018zm-3.100006,19.899994l0,-15.5l2.800003,0l0,15.5l-2.800003,0z" fill="#5d0d0b" id="svg_40"/>
   <path d="m221.399994,416.399994c0,-1.600006 0,-2.899994 -0.100006,-4.200012l2.5,0l0.199997,2.600006l0.100006,0c0.800003,-1.5 2.5,-2.899994 5.100006,-2.899994c2.099991,0 5.399994,1.299988 5.399994,6.600006l0,9.299988l-2.800003,0l0,-8.899994c0,-2.5 -0.899994,-4.600006 -3.5,-4.600006c-1.800003,0 -3.300003,1.299988 -3.699997,2.899994c-0.100006,0.399994 -0.199997,0.800018 -0.199997,1.300018l0,9.299988l-2.800003,0l0,-11.399994l-0.199997,0z" fill="#5d0d0b" id="svg_41"/>
   <path d="m252.100006,412.200012c-0.099991,1.100006 -0.099991,2.399994 -0.099991,4.299988l0,9c0,3.600006 -0.700012,5.700012 -2.200012,7.100006c-1.5,1.399994 -3.599991,1.899994 -5.599991,1.899994c-1.800003,0 -3.900009,-0.399994 -5.100006,-1.299988l0.699997,-2.100006c1,0.600006 2.600006,1.200012 4.5,1.200012c2.800003,0 4.900009,-1.5 4.900009,-5.399994l0,-1.700012l-0.100006,0c-0.899994,1.399994 -2.5,2.600006 -4.899994,2.600006c-3.800003,0 -6.5,-3.300018 -6.5,-7.600006c0,-5.299988 3.399994,-8.200012 6.899994,-8.200012c2.699997,0 4.100006,1.400024 4.800003,2.700012l0.100006,0l0.099991,-2.299988l2.5,0l0,-0.200012zm-2.900009,6.199982c0,-0.5 0,-0.899994 -0.199997,-1.300018c-0.5,-1.599976 -1.899994,-3 -3.899994,-3c-2.700012,0 -4.5,2.300018 -4.5,5.900024c0,3 1.5,5.599976 4.5,5.599976c1.699997,0 3.299988,-1.099976 3.899994,-2.899994c0.199997,-0.5 0.199997,-1 0.199997,-1.5l0,-2.799988z" fill="#5d0d0b" id="svg_42"/>
   <path d="m263.299988,416.399994c0,-1.600006 0,-2.899994 -0.100006,-4.200012l2.5,0l0.200012,2.600006l0.100006,0c0.799988,-1.5 2.5,-2.899994 5.099976,-2.899994c2.100006,0 5.400024,1.299988 5.400024,6.600006l0,9.299988l-2.800018,0l0,-8.899994c0,-2.5 -0.899994,-4.600006 -3.5,-4.600006c-1.799988,0 -3.299988,1.299988 -3.699982,2.899994c-0.100006,0.399994 -0.200012,0.800018 -0.200012,1.300018l0,9.299988l-2.799988,0l0,-11.399994l-0.200012,0z" fill="#5d0d0b" id="svg_43"/>
   <path d="m293.600006,423.5c0,1.600006 0,3 0.100006,4.200012l-2.5,0l-0.200012,-2.5l0,0c-0.700012,1.199982 -2.299988,2.899994 -5.100006,2.899994c-2.399994,0 -5.299988,-1.300018 -5.299988,-6.800018l0,-9.099976l2.799988,0l0,8.599976c0,2.900024 0.899994,4.900024 3.399994,4.900024c1.900024,0 3.200012,-1.300018 3.700012,-2.600006c0.200012,-0.399994 0.299988,-0.899994 0.299988,-1.399994l0,-9.5l2.800018,0l0,11.299988z" fill="#5d0d0b" id="svg_44"/>
   <path d="m311.299988,412.200012c-0.100006,1.100006 -0.100006,2.399994 -0.100006,4.299988l0,9c0,3.600006 -0.699982,5.700012 -2.199982,7.100006c-1.5,1.399994 -3.600006,1.899994 -5.600006,1.899994c-1.800018,0 -3.899994,-0.399994 -5.100006,-1.299988l0.700012,-2.100006c1,0.600006 2.599976,1.200012 4.5,1.200012c2.799988,0 4.899994,-1.5 4.899994,-5.399994l0,-1.700012l-0.100006,0c-0.899994,1.399994 -2.5,2.600006 -4.899994,2.600006c-3.800018,0 -6.5,-3.300018 -6.5,-7.600006c0,-5.299988 3.399994,-8.200012 6.899994,-8.200012c2.700012,0 4.100006,1.400024 4.799988,2.700012l0.100006,0l0.100006,-2.299988l2.5,0l0,-0.200012zm-2.799988,6.199982c0,-0.5 0,-0.899994 -0.200012,-1.300018c-0.5,-1.599976 -1.899994,-3 -3.899994,-3c-2.699982,0 -4.5,2.300018 -4.5,5.900024c0,3 1.5,5.599976 4.5,5.599976c1.700012,0 3.300018,-1.099976 3.899994,-2.899994c0.200012,-0.5 0.200012,-1 0.200012,-1.5l0,-2.799988z" fill="#5d0d0b" id="svg_45"/>
   <path d="m329,412.200012c-0.100006,1.100006 -0.100006,2.399994 -0.100006,4.299988l0,9c0,3.600006 -0.699982,5.700012 -2.199982,7.100006c-1.5,1.399994 -3.600006,1.899994 -5.600006,1.899994c-1.800018,0 -3.899994,-0.399994 -5.100006,-1.299988l0.700012,-2.100006c1,0.600006 2.599976,1.200012 4.5,1.200012c2.799988,0 4.899994,-1.5 4.899994,-5.399994l0,-1.700012l-0.100006,0c-0.899994,1.399994 -2.5,2.600006 -4.899994,2.600006c-3.800018,0 -6.5,-3.300018 -6.5,-7.600006c0,-5.299988 3.399994,-8.200012 6.899994,-8.200012c2.700012,0 4.100006,1.400024 4.799988,2.700012l0.100006,0l0.100006,-2.299988l2.5,0l0,-0.200012zm-2.899994,6.199982c0,-0.5 0,-0.899994 -0.199982,-1.300018c-0.5,-1.599976 -1.900024,-3 -3.900024,-3c-2.699982,0 -4.5,2.300018 -4.5,5.900024c0,3 1.5,5.599976 4.5,5.599976c1.700012,0 3.300018,-1.099976 3.900024,-2.899994c0.199982,-0.5 0.199982,-1 0.199982,-1.5l0,-2.799988z" fill="#5d0d0b" id="svg_46"/>
   <path d="m335,420.5c0.100006,3.799988 2.5,5.399994 5.200012,5.399994c2,0 3.199982,-0.399994 4.199982,-0.799988l0.5,2c-1,0.399994 -2.699982,1 -5.100006,1c-4.699982,0 -7.5,-3.100006 -7.5,-7.800018c0,-4.699982 2.700012,-8.399994 7.200012,-8.399994c5,0 6.299988,4.5 6.299988,7.300018c0,0.599976 -0.099976,1 -0.099976,1.299988l-10.700012,0zm8.100006,-2c0,-1.799988 -0.699982,-4.600006 -3.899994,-4.600006c-2.799988,0 -4,2.600006 -4.299988,4.600006l8.199982,0z" fill="#5d0d0b" id="svg_47"/>
   <path d="m352.600006,407.799988l0,4.5l4,0l0,2.100006l-4,0l0,8.399994c0,1.899994 0.5,3 2.100006,3c0.700012,0 1.299988,-0.100006 1.600006,-0.200012l0.100006,2.100006c-0.5,0.200012 -1.400024,0.399994 -2.5,0.399994c-1.300018,0 -2.300018,-0.399994 -3,-1.199982c-0.800018,-0.800018 -1.100006,-2.200012 -1.100006,-4l0,-8.5l-2.399994,0l0,-2.100006l2.399994,0l0,-3.700012l2.799988,-0.799988z" fill="#5d0d0b" id="svg_48"/>
   <path d="m359.299988,424.899994c0.799988,0.5 2.299988,1.100006 3.700012,1.100006c2,0 3,-1 3,-2.300018c0,-1.299988 -0.800018,-2.100006 -2.800018,-2.899994c-2.699982,-1 -4,-2.5 -4,-4.399994c0,-2.5 2,-4.5 5.300018,-4.5c1.5,0 2.899994,0.399994 3.799988,1l-0.700012,2.100006c-0.599976,-0.400024 -1.699982,-0.900024 -3.099976,-0.900024c-1.600006,0 -2.600006,1 -2.600006,2.100006c0,1.300018 0.899994,1.899994 2.899994,2.600006c2.700012,1 4,2.399994 4,4.700012c0,2.699982 -2.100006,4.599976 -5.700012,4.599976c-1.699982,0 -3.199982,-0.399994 -4.299988,-1.099976l0.5,-2.100006z" fill="#5d0d0b" id="svg_49"/>
   <path d="m379.200012,427.799988l0,-13.399994l-2.200012,0l0,-2.100006l2.100006,0l0,-0.700012c0,-2.199982 0.5,-4.199982 1.799988,-5.399994c1,-1 2.399994,-1.399994 3.700012,-1.399994c1,0 1.799988,0.200012 2.399994,0.399994l-0.399994,2.200012c-0.399994,-0.200012 -1,-0.399994 -1.800018,-0.399994c-2.399994,0 -3,2.099976 -3,4.5l0,0.799988l3.700012,0l0,2.100006l-3.700012,0l0,13.399994l-2.599976,0z" fill="#5d0d0b" id="svg_50"/>
   <path d="m401.5,419.899994c0,5.699982 -3.899994,8.199982 -7.600006,8.199982c-4.100006,0 -7.299988,-3.099976 -7.299988,-8c0,-5.199982 3.299988,-8.199982 7.600006,-8.199982c4.399994,0 7.299988,3.200012 7.299988,8zm-12.100006,0.100006c0,3.399994 1.899994,6 4.600006,6c2.699982,0 4.599976,-2.5 4.599976,-6c0,-2.600006 -1.299988,-6 -4.599976,-6c-3.200012,0 -4.600006,3.100006 -4.600006,6z" fill="#5d0d0b" id="svg_51"/>
   <path d="m405,417.100006c0,-1.799988 0,-3.399994 -0.100006,-4.799988l2.399994,0l0.100006,3l0.100006,0c0.700012,-2.100006 2.399994,-3.399994 4.200012,-3.399994c0.299988,0 0.5,0 0.799988,0.099976l0,2.700012c-0.299988,-0.100006 -0.600006,-0.100006 -0.899994,-0.100006c-2,0 -3.300018,1.5 -3.700012,3.600006c-0.100006,0.399994 -0.100006,0.799988 -0.100006,1.299988l0,8.300018l-2.799988,0l0,-10.700012z" fill="#5d0d0b" id="svg_52"/>
   <path d="m423.100006,412.200012l3.300018,9.200012c0.299988,1 0.699982,2.199982 1,3.199982l0.099976,0c0.300018,-0.899994 0.600006,-2.100006 1,-3.199982l3,-9.100006l2.900024,0l-4.200012,11.100006c-2,5.299988 -3.299988,8 -5.200012,9.699982c-1.399994,1.200012 -2.699982,1.700012 -3.399994,1.800018l-0.699982,-2.400024c0.699982,-0.199982 1.599976,-0.699982 2.399994,-1.399994c0.799988,-0.600006 1.699982,-1.699982 2.299988,-3.100006c0.100006,-0.299988 0.200012,-0.5 0.200012,-0.699982c0,-0.200012 -0.100006,-0.399994 -0.200012,-0.700012l-5.699982,-14.299988l3.199982,0l0,-0.100006z" fill="#5d0d0b" id="svg_53"/>
   <path d="m450.399994,419.899994c0,5.699982 -3.899994,8.199982 -7.600006,8.199982c-4.100006,0 -7.299988,-3.099976 -7.299988,-8c0,-5.199982 3.299988,-8.199982 7.599976,-8.199982c4.400024,0 7.300018,3.200012 7.300018,8zm-12.100006,0.100006c0,3.399994 1.899994,6 4.600006,6c2.699982,0 4.600006,-2.5 4.600006,-6c0,-2.600006 -1.300018,-6 -4.600006,-6c-3.199982,0 -4.600006,3.100006 -4.600006,6z" fill="#5d0d0b" id="svg_54"/>
   <path d="m466.700012,423.5c0,1.600006 0,3 0.100006,4.200012l-2.5,0l-0.200012,-2.5l-0.100006,0c-0.699982,1.199982 -2.299988,2.899994 -5.099976,2.899994c-2.400024,0 -5.300018,-1.300018 -5.300018,-6.800018l0,-9.099976l2.800018,0l0,8.599976c0,2.900024 0.899994,4.900024 3.399994,4.900024c1.899994,0 3.199982,-1.300018 3.699982,-2.600006c0.200012,-0.399994 0.300018,-0.899994 0.300018,-1.399994l0,-9.5l2.799988,0l0,11.299988l0.100006,0z" fill="#5d0d0b" id="svg_55"/>
   <path d="m471.299988,417.100006c0,-1.799988 0,-3.399994 -0.100006,-4.799988l2.399994,0l0.100006,3l0.100006,0c0.700012,-2.100006 2.399994,-3.399994 4.200012,-3.399994c0.299988,0 0.5,0 0.799988,0.099976l0,2.700012c-0.299988,-0.100006 -0.600006,-0.100006 -0.899994,-0.100006c-2,0 -3.300018,1.5 -3.700012,3.600006c-0.100006,0.399994 -0.100006,0.799988 -0.100006,1.299988l0,8.300018l-2.699982,0l0,-10.700012l-0.100006,0z" fill="#5d0d0b" id="svg_56"/>
   <path d="m488.200012,427.799988c0.100006,-1.100006 0.100006,-2.600006 0.100006,-4l0,-18.799988l2.699982,0l0,9.700012l0.100006,0c1,-1.700012 2.700012,-2.900024 5.200012,-2.900024c3.799988,0 6.5,3.200012 6.399994,7.900024c0,5.5 -3.399994,8.299988 -6.799988,8.299988c-2.200012,0 -4,-0.899994 -5.100006,-2.899994l-0.100006,0l-0.100006,2.600006l-2.399994,0l0,0.099976zm2.899994,-6.299988c0,0.399994 0.100006,0.700012 0.100006,1c0.5,2 2.100006,3.299988 4.200012,3.299988c2.899994,0 4.599976,-2.399994 4.599976,-6c0,-3.099976 -1.599976,-5.799988 -4.5,-5.799988c-1.899994,0 -3.699982,1.299988 -4.199982,3.5c-0.100006,0.299988 -0.200012,0.700012 -0.200012,1.200012l0,2.799988z" fill="#5d0d0b" id="svg_57"/>
   <path d="m506.299988,417.100006c0,-1.799988 0,-3.399994 -0.100006,-4.799988l2.399994,0l0.100006,3l0.100006,0c0.700012,-2.100006 2.399994,-3.399994 4.200012,-3.399994c0.299988,0 0.5,0 0.799988,0.099976l0,2.700012c-0.299988,-0.100006 -0.599976,-0.100006 -0.900024,-0.100006c-1.999969,0 -3.299988,1.5 -3.699982,3.600006c-0.100006,0.399994 -0.100006,0.799988 -0.100006,1.299988l0,8.300018l-2.699982,0l0,-10.700012l-0.100006,0z" fill="#5d0d0b" id="svg_58"/>
   <path d="m524.900024,427.799988l-0.200012,-2l-0.099976,0c-0.900024,1.200012 -2.5,2.299988 -4.700012,2.299988c-3.099976,0 -4.700012,-2.199982 -4.700012,-4.5c0,-3.699982 3.299988,-5.799988 9.200012,-5.799988l0,-0.299988c0,-1.300018 -0.299988,-3.600006 -3.5,-3.600006c-1.400024,0 -2.900024,0.399994 -4,1.199982l-0.599976,-1.899994c1.299988,-0.799988 3.099976,-1.399994 5,-1.399994c4.699951,0 5.799988,3.200012 5.799988,6.299988l0,5.800018c0,1.299988 0.099976,2.699982 0.299988,3.699982l-2.5,0l0,0.200012zm-0.400024,-8c-3,-0.100006 -6.5,0.5 -6.5,3.5c0,1.799988 1.200012,2.700012 2.599976,2.700012c2,0 3.300049,-1.300018 3.700012,-2.600006c0.100037,-0.300018 0.200012,-0.600006 0.200012,-0.899994l0,-2.700012z" fill="#5d0d0b" id="svg_59"/>
   <path d="m534.700012,407.899994c0,1 -0.700012,1.699982 -1.799988,1.699982c-1,0 -1.700012,-0.799988 -1.700012,-1.699982c0,-1 0.700012,-1.800018 1.700012,-1.800018c1.199951,0.000031 1.799988,0.800018 1.799988,1.800018zm-3,19.899994l0,-15.5l2.799988,0l0,15.5l-2.799988,0z" fill="#5d0d0b" id="svg_60"/>
   <path d="m539,416.399994c0,-1.600006 0,-2.899994 -0.099976,-4.200012l2.5,0l0.199951,2.600006l0.100037,0c0.799988,-1.5 2.5,-2.899994 5.099976,-2.899994c2.100037,0 5.400024,1.299988 5.400024,6.600006l0,9.299988l-2.799988,0l0,-8.899994c0,-2.5 -0.900024,-4.600006 -3.5,-4.600006c-1.800049,0 -3.300049,1.299988 -3.700012,2.899994c-0.100037,0.399994 -0.200012,0.800018 -0.200012,1.300018l0,9.299988l-3,0l0,-11.399994z" fill="#5d0d0b" id="svg_61"/>
  </g>
  <path d="m601.700012,62.400002c1.599976,-1.400002 2.799988,-3.100002 2.700012,-5.300003c-0.100037,-2.399998 -1.299988,-4.5 -2.799988,-6.399998c-1.5,-2 -3.400024,-3.799999 -5.800049,-4.600002c-5,-1.699997 -10.5,3.600002 -14.099976,6.5c-29,23.599998 -53.299988,44.099998 -80.899994,66.300003c-0.399994,0.299995 -1.399994,0.400002 -2.100006,0.099998c-5.399994,-2.300003 -10.5,-3.099998 -15.299988,-2.5c-9.600006,1.300003 -16.400024,6 -21.800018,12.399994c-2.5,3 -4.799988,6 -7.199982,9.100006c0.699982,3 1.299988,6.100006 2,9.100006c1.299988,-1.100006 2.599976,-2.200012 3.899994,-3.200012c6.5,-5.099991 12.899994,-10.199997 19.299988,-15.299988c1.100006,1.199997 2.100006,2.299988 3.200012,3.399994c-8.200012,7.399994 -17.100006,14.100006 -25,21.700012c0.199982,0.899994 0.399994,1.800003 0.600006,2.699997c0.799988,0.399994 1.399994,0.899994 2,1.5c2.899994,-2.199997 5.699982,-4.600006 8.699982,-6.600006c6.5,-4.5 12.899994,-9 19.399994,-13.5c1,1 1.900024,1.800003 2.800018,2.800003c-9,7.699997 -18.100006,15.199997 -27,22.799988c0.199982,-0.199997 2.199982,2.100006 2.600006,2.200012c1,0.199997 1.199982,-0.300003 2.099976,-0.800003c2.300018,-1.199997 4.5,-3 6.600006,-4.400009c6.899994,-4.699997 13.899994,-9.299988 20.899994,-14c0.900024,1 1.700012,1.800003 2.600006,2.800003c-0.299988,-0.300003 -25.299988,20.400009 -27.600006,22.300003c1.100006,1.699997 2.5,3.100006 4.300018,4.100006c8.899994,-4.400009 18.199982,-8.200012 26.699982,-13.300003c9.100006,-5.5 12.700012,-14.699997 10,-27.600006c-0.299988,-1.599991 0,-2.399994 1,-3.199997c15.5,-12.400002 31.200012,-24.5 46.799988,-36.699997c8.100037,-6.300003 16.100037,-12.5 24.200012,-18.800003c4.200012,-3.300003 8.400024,-6.599998 12.5,-9.900002c1.400024,-1.299995 3.200012,-2.399998 4.700012,-3.699997z" fill="#5d0d0b" id="svg_62"/>
  <image xlink:href="images/logo.png" y="-187.33" x="-317" id="svg_80"/>
 </g>
</svg>